<svg id="0041e4b1-6769-4442-bda2-4bf5efdf5aef" data-name="Layer 1" xmlns="http://www.w3.org/2000/svg" viewBox="0 0 1024 150"><title>offers</title><rect width="1024" height="150" style="fill:#f8f8ff"/><path d="M44.85,36.63a14.73,14.73,0,0,1,5.14.88,11.17,11.17,0,0,1,4.12,2.64,12.2,12.2,0,0,1,2.72,4.4,17.81,17.81,0,0,1,1,6.2,19.8,19.8,0,0,1-.8,5.76,12.68,12.68,0,0,1-2.42,4.56,11.33,11.33,0,0,1-4,3,13.66,13.66,0,0,1-5.7,1.1H32.53V36.63Zm-.44,23.28a8.05,8.05,0,0,0,2.64-.44A5.81,5.81,0,0,0,49.33,58a7.34,7.34,0,0,0,1.6-2.66,11.7,11.7,0,0,0,.6-4,16.64,16.64,0,0,0-.42-3.9,7.78,7.78,0,0,0-1.38-3,6.13,6.13,0,0,0-2.54-1.9,10.14,10.14,0,0,0-3.9-.66H38.81v18Z" style="fill:#006bdf"/><path d="M67.65,60.23a5.82,5.82,0,0,0,6.64.38,3.57,3.57,0,0,0,1.52-1.82h5a9.49,9.49,0,0,1-3.68,5.32,10.83,10.83,0,0,1-6,1.6,11.82,11.82,0,0,1-4.4-.78,9.15,9.15,0,0,1-3.32-2.22,10,10,0,0,1-2.1-3.44,12.58,12.58,0,0,1-.74-4.4,12.06,12.06,0,0,1,.76-4.32,10,10,0,0,1,5.5-5.76,10.71,10.71,0,0,1,4.3-.84,9.84,9.84,0,0,1,4.6,1A9.18,9.18,0,0,1,79,47.71a11.27,11.27,0,0,1,1.82,3.92,14.62,14.62,0,0,1,.4,4.6H66.25A5.74,5.74,0,0,0,67.65,60.23Zm6.42-10.88A4,4,0,0,0,71,48.23a5,5,0,0,0-2.26.46,4.31,4.31,0,0,0-1.44,1.14,4.17,4.17,0,0,0-.76,1.44,6.48,6.48,0,0,0-.26,1.36h9.24A6.57,6.57,0,0,0,74.07,49.35Z" style="fill:#006bdf"/><path d="M89.65,65.19,82.57,44.51h6l4.36,14.12H93l4.36-14.12H103L96,65.19Z" style="fill:#006bdf"/><path d="M111.41,60.23a5.82,5.82,0,0,0,6.64.38,3.57,3.57,0,0,0,1.52-1.82h5a9.49,9.49,0,0,1-3.68,5.32,10.83,10.83,0,0,1-6,1.6,11.82,11.82,0,0,1-4.4-.78,9.15,9.15,0,0,1-3.32-2.22,10,10,0,0,1-2.1-3.44,12.58,12.58,0,0,1-.74-4.4,12.06,12.06,0,0,1,.76-4.32,10,10,0,0,1,5.5-5.76,10.71,10.71,0,0,1,4.3-.84,9.84,9.84,0,0,1,4.6,1,9.18,9.18,0,0,1,3.22,2.74,11.27,11.27,0,0,1,1.82,3.92,14.62,14.62,0,0,1,.4,4.6H110A5.74,5.74,0,0,0,111.41,60.23Zm6.42-10.88a4,4,0,0,0-3.1-1.12,5,5,0,0,0-2.26.46A4.31,4.31,0,0,0,111,49.83a4.17,4.17,0,0,0-.76,1.44,6.48,6.48,0,0,0-.26,1.36h9.24A6.57,6.57,0,0,0,117.83,49.35Z" style="fill:#006bdf"/><path d="M134.13,36.63V65.19h-5.68V36.63Z" style="fill:#006bdf"/><path d="M138.73,50.37a9.46,9.46,0,0,1,5.52-5.64,11.81,11.81,0,0,1,4.4-.78,12,12,0,0,1,4.42.78,9.42,9.42,0,0,1,5.54,5.64,12.71,12.71,0,0,1,.76,4.5,12.55,12.55,0,0,1-.76,4.48,9.72,9.72,0,0,1-2.16,3.42A9.4,9.4,0,0,1,153.07,65a12.26,12.26,0,0,1-4.42.76,12.1,12.1,0,0,1-4.4-.76,9.43,9.43,0,0,1-3.36-2.18,9.71,9.71,0,0,1-2.16-3.42,12.53,12.53,0,0,1-.76-4.48A12.69,12.69,0,0,1,138.73,50.37Zm5.16,6.92a6.45,6.45,0,0,0,.82,2.12,4.37,4.37,0,0,0,1.54,1.5,4.7,4.7,0,0,0,2.4.56,4.81,4.81,0,0,0,2.42-.56,4.33,4.33,0,0,0,1.56-1.5,6.46,6.46,0,0,0,.82-2.12,12.1,12.1,0,0,0,.24-2.42,12.4,12.4,0,0,0-.24-2.44,6.24,6.24,0,0,0-.82-2.12,4.56,4.56,0,0,0-1.56-1.5,4.68,4.68,0,0,0-2.42-.58,4.37,4.37,0,0,0-3.94,2.08,6.23,6.23,0,0,0-.82,2.12,12.4,12.4,0,0,0-.24,2.44A12.1,12.1,0,0,0,143.89,57.29Z" style="fill:#006bdf"/><path d="M168.45,44.51v2.64h.08a6.24,6.24,0,0,1,2.64-2.44,8.1,8.1,0,0,1,3.52-.76,9,9,0,0,1,4.2.92,8.68,8.68,0,0,1,2.92,2.44,10.32,10.32,0,0,1,1.72,3.54,15.74,15.74,0,0,1,.56,4.22,14.22,14.22,0,0,1-.56,4,10.18,10.18,0,0,1-1.7,3.4A8.42,8.42,0,0,1,179,64.83a8.55,8.55,0,0,1-4,.88,8.06,8.06,0,0,1-3.54-.78,6.7,6.7,0,0,1-2.66-2.3h-.08v9.8h-5.68V44.51Zm7.38,16.4a4.56,4.56,0,0,0,1.52-1.46,6,6,0,0,0,.82-2.1,12.4,12.4,0,0,0,.24-2.44,11.5,11.5,0,0,0-.26-2.44,6.5,6.5,0,0,0-.86-2.14,4.79,4.79,0,0,0-1.54-1.52,4.31,4.31,0,0,0-2.3-.58,4.38,4.38,0,0,0-2.34.58,4.66,4.66,0,0,0-1.52,1.5,6.22,6.22,0,0,0-.82,2.12,12.64,12.64,0,0,0-.24,2.48,11.46,11.46,0,0,0,.26,2.44,6.29,6.29,0,0,0,.84,2.1,4.85,4.85,0,0,0,6.2,1.46Z" style="fill:#006bdf"/><path d="M193.57,60.23a5.82,5.82,0,0,0,6.64.38,3.57,3.57,0,0,0,1.52-1.82h5a9.49,9.49,0,0,1-3.68,5.32,10.83,10.83,0,0,1-6,1.6,11.82,11.82,0,0,1-4.4-.78,9.15,9.15,0,0,1-3.32-2.22,10,10,0,0,1-2.1-3.44,12.58,12.58,0,0,1-.74-4.4,12.06,12.06,0,0,1,.76-4.32,10,10,0,0,1,5.5-5.76,10.71,10.71,0,0,1,4.3-.84,9.84,9.84,0,0,1,4.6,1,9.18,9.18,0,0,1,3.22,2.74,11.27,11.27,0,0,1,1.82,3.92,14.62,14.62,0,0,1,.4,4.6H192.17A5.74,5.74,0,0,0,193.57,60.23ZM200,49.35a4,4,0,0,0-3.1-1.12,5,5,0,0,0-2.26.46,4.31,4.31,0,0,0-1.44,1.14,4.17,4.17,0,0,0-.76,1.44,6.48,6.48,0,0,0-.26,1.36h9.24A6.57,6.57,0,0,0,200,49.35Z" style="fill:#006bdf"/><path d="M215.85,44.51v3.84h.08A7,7,0,0,1,217,46.57a7.09,7.09,0,0,1,1.56-1.4,7.65,7.65,0,0,1,1.88-.9,6.78,6.78,0,0,1,2.08-.32,4.43,4.43,0,0,1,1.24.2v5.28q-.4-.08-1-.14a10.15,10.15,0,0,0-1.08-.06,6.06,6.06,0,0,0-2.64.52,4.57,4.57,0,0,0-1.74,1.42,5.68,5.68,0,0,0-.94,2.1,11.41,11.41,0,0,0-.28,2.6v9.32h-5.68V44.51Z" style="fill:#006bdf"/><path d="M242.53,58.15a4.53,4.53,0,0,0,1.38,1.62,6,6,0,0,0,2,.92,9.53,9.53,0,0,0,2.4.3,12.45,12.45,0,0,0,1.8-.14,6.27,6.27,0,0,0,1.8-.54,3.93,3.93,0,0,0,1.4-1.1,2.76,2.76,0,0,0,.56-1.78,2.51,2.51,0,0,0-.74-1.88,5.88,5.88,0,0,0-1.94-1.2,19.37,19.37,0,0,0-2.72-.84q-1.52-.36-3.08-.8a27.21,27.21,0,0,1-3.12-1,10.68,10.68,0,0,1-2.72-1.5,7.06,7.06,0,0,1-1.94-2.3,7,7,0,0,1-.74-3.34,7.48,7.48,0,0,1,.94-3.82,8.51,8.51,0,0,1,2.46-2.7,10.74,10.74,0,0,1,3.44-1.6,14.66,14.66,0,0,1,3.84-.52,18.19,18.19,0,0,1,4.3.5,10.75,10.75,0,0,1,3.66,1.62,8.2,8.2,0,0,1,2.54,2.86,8.78,8.78,0,0,1,.94,4.22h-6.08a5.07,5.07,0,0,0-.54-2.12,3.54,3.54,0,0,0-1.22-1.32,5.17,5.17,0,0,0-1.74-.68,10.75,10.75,0,0,0-2.14-.2,7.41,7.41,0,0,0-1.52.16,4.08,4.08,0,0,0-1.38.56,3.47,3.47,0,0,0-1,1,2.69,2.69,0,0,0-.4,1.52,2.57,2.57,0,0,0,.32,1.36,2.86,2.86,0,0,0,1.26,1,16,16,0,0,0,2.6.88l4.34,1.12q.8.16,2.22.58a10.67,10.67,0,0,1,2.82,1.34A8.53,8.53,0,0,1,259,52.77a7,7,0,0,1,1,3.94,8.74,8.74,0,0,1-.76,3.64,7.92,7.92,0,0,1-2.26,2.9,10.86,10.86,0,0,1-3.72,1.9,17.59,17.59,0,0,1-5.14.68,18.06,18.06,0,0,1-4.58-.58,11.51,11.51,0,0,1-3.92-1.82,9,9,0,0,1-2.7-3.16,9.43,9.43,0,0,1-1-4.56H242A5.23,5.23,0,0,0,242.53,58.15Z" style="fill:#006bdf"/><path d="M277.09,65.19V62.31H277a6.4,6.4,0,0,1-2.8,2.6,8.28,8.28,0,0,1-3.52.8,9.94,9.94,0,0,1-3.74-.6,5.39,5.39,0,0,1-2.3-1.7,6.65,6.65,0,0,1-1.18-2.68,16.64,16.64,0,0,1-.34-3.5V44.51h5.68V56.19a7.24,7.24,0,0,0,.8,3.82,3.1,3.1,0,0,0,2.84,1.26,3.94,3.94,0,0,0,3.36-1.38,7.67,7.67,0,0,0,1-4.54V44.51h5.68V65.19Z" style="fill:#006bdf"/><path d="M292.21,44.51v2.64h.08a6.24,6.24,0,0,1,2.64-2.44,8.1,8.1,0,0,1,3.52-.76,9,9,0,0,1,4.2.92,8.68,8.68,0,0,1,2.92,2.44,10.32,10.32,0,0,1,1.72,3.54,15.74,15.74,0,0,1,.56,4.22,14.22,14.22,0,0,1-.56,4,10.18,10.18,0,0,1-1.7,3.4,8.42,8.42,0,0,1-2.84,2.36,8.55,8.55,0,0,1-4,.88,8.06,8.06,0,0,1-3.54-.78,6.7,6.7,0,0,1-2.66-2.3h-.08v9.8h-5.68V44.51Zm7.38,16.4a4.56,4.56,0,0,0,1.52-1.46,6,6,0,0,0,.82-2.1,12.4,12.4,0,0,0,.24-2.44,11.5,11.5,0,0,0-.26-2.44,6.5,6.5,0,0,0-.86-2.14,4.79,4.79,0,0,0-1.54-1.52,4.31,4.31,0,0,0-2.3-.58,4.38,4.38,0,0,0-2.34.58,4.66,4.66,0,0,0-1.52,1.5,6.22,6.22,0,0,0-.82,2.12,12.64,12.64,0,0,0-.24,2.48,11.46,11.46,0,0,0,.26,2.44,6.29,6.29,0,0,0,.84,2.1,4.85,4.85,0,0,0,6.2,1.46Z" style="fill:#006bdf"/><path d="M316.65,44.51v2.64h.08a6.24,6.24,0,0,1,2.64-2.44,8.1,8.1,0,0,1,3.52-.76,9,9,0,0,1,4.2.92A8.68,8.68,0,0,1,330,47.31a10.32,10.32,0,0,1,1.72,3.54,15.74,15.74,0,0,1,.56,4.22,14.22,14.22,0,0,1-.56,4,10.18,10.18,0,0,1-1.7,3.4,8.42,8.42,0,0,1-2.84,2.36,8.55,8.55,0,0,1-4,.88,8.06,8.06,0,0,1-3.54-.78,6.7,6.7,0,0,1-2.66-2.3h-.08v9.8h-5.68V44.51ZM324,60.91a4.56,4.56,0,0,0,1.52-1.46,6,6,0,0,0,.82-2.1,12.4,12.4,0,0,0,.24-2.44,11.5,11.5,0,0,0-.26-2.44,6.5,6.5,0,0,0-.86-2.14,4.79,4.79,0,0,0-1.54-1.52,4.31,4.31,0,0,0-2.3-.58,4.38,4.38,0,0,0-2.34.58,4.66,4.66,0,0,0-1.52,1.5,6.22,6.22,0,0,0-.82,2.12,12.64,12.64,0,0,0-.24,2.48,11.46,11.46,0,0,0,.26,2.44,6.29,6.29,0,0,0,.84,2.1,4.85,4.85,0,0,0,6.2,1.46Z" style="fill:#006bdf"/><path d="M335.81,50.37a9.46,9.46,0,0,1,5.52-5.64,11.81,11.81,0,0,1,4.4-.78,12,12,0,0,1,4.42.78,9.42,9.42,0,0,1,5.54,5.64,12.71,12.71,0,0,1,.76,4.5,12.55,12.55,0,0,1-.76,4.48,9.72,9.72,0,0,1-2.16,3.42A9.4,9.4,0,0,1,350.15,65a12.26,12.26,0,0,1-4.42.76,12.1,12.1,0,0,1-4.4-.76A9.43,9.43,0,0,1,338,62.77a9.71,9.71,0,0,1-2.16-3.42,12.53,12.53,0,0,1-.76-4.48A12.69,12.69,0,0,1,335.81,50.37ZM341,57.29a6.45,6.45,0,0,0,.82,2.12,4.37,4.37,0,0,0,1.54,1.5,4.7,4.7,0,0,0,2.4.56,4.81,4.81,0,0,0,2.42-.56,4.33,4.33,0,0,0,1.56-1.5,6.46,6.46,0,0,0,.82-2.12,12.1,12.1,0,0,0,.24-2.42,12.4,12.4,0,0,0-.24-2.44,6.24,6.24,0,0,0-.82-2.12,4.56,4.56,0,0,0-1.56-1.5,4.68,4.68,0,0,0-2.42-.58,4.37,4.37,0,0,0-3.94,2.08,6.23,6.23,0,0,0-.82,2.12,12.4,12.4,0,0,0-.24,2.44A12.1,12.1,0,0,0,341,57.29Z" style="fill:#006bdf"/><path d="M365.53,44.51v3.84h.08a7,7,0,0,1,1.08-1.78,7.09,7.09,0,0,1,1.56-1.4,7.65,7.65,0,0,1,1.88-.9,6.78,6.78,0,0,1,2.08-.32,4.43,4.43,0,0,1,1.24.2v5.28q-.4-.08-1-.14a10.15,10.15,0,0,0-1.08-.06,6.06,6.06,0,0,0-2.64.52A4.57,4.57,0,0,0,367,51.17a5.68,5.68,0,0,0-.94,2.1,11.41,11.41,0,0,0-.28,2.6v9.32h-5.68V44.51Z" style="fill:#006bdf"/><path d="M387,44.51v3.8h-4.16V58.55a2.78,2.78,0,0,0,.48,1.92,2.78,2.78,0,0,0,1.92.48c.32,0,.63,0,.92,0a7.81,7.81,0,0,0,.84-.12v4.4a13.54,13.54,0,0,1-1.6.16q-.88,0-1.72,0a16.56,16.56,0,0,1-2.5-.18,5.89,5.89,0,0,1-2.08-.7A3.7,3.7,0,0,1,377.73,63a5.28,5.28,0,0,1-.52-2.52V48.31h-3.44v-3.8h3.44v-6.2h5.68v6.2Z" style="fill:#006bdf"/><path d="M31.32,83.46A9.2,9.2,0,0,1,33,80.35a8.19,8.19,0,0,1,2.78-2.16,9.72,9.72,0,0,1,7.75,0,8.2,8.2,0,0,1,2.78,2.16A9.22,9.22,0,0,1,48,83.46a12.21,12.21,0,0,1,0,7.31,9.21,9.21,0,0,1-1.68,3.11A8.05,8.05,0,0,1,43.53,96a9.86,9.86,0,0,1-7.75,0A8,8,0,0,1,33,93.87a9.2,9.2,0,0,1-1.68-3.11,12.21,12.21,0,0,1,0-7.31Zm2.27,6.42a7.52,7.52,0,0,0,1.14,2.46,5.85,5.85,0,0,0,2,1.76,6.73,6.73,0,0,0,5.82,0,5.86,5.86,0,0,0,2-1.76,7.53,7.53,0,0,0,1.14-2.46,10.72,10.72,0,0,0,0-5.54,7.53,7.53,0,0,0-1.14-2.46,5.86,5.86,0,0,0-2-1.76,6.73,6.73,0,0,0-5.82,0,5.85,5.85,0,0,0-2,1.76,7.52,7.52,0,0,0-1.14,2.46,10.72,10.72,0,0,0,0,5.54Z" style="fill:#4b4b4c"/><path d="M53.28,82.95v2.13h.05a4.65,4.65,0,0,1,4.37-2.44,5.84,5.84,0,0,1,2.21.36,3.65,3.65,0,0,1,1.43,1,3.77,3.77,0,0,1,.77,1.55,8.31,8.31,0,0,1,.22,2v8.84H60.11v-9.1a2.67,2.67,0,0,0-.73-2,2.71,2.71,0,0,0-2-.73,4.5,4.5,0,0,0-1.75.31,3.29,3.29,0,0,0-1.24.88,3.81,3.81,0,0,0-.74,1.34,5.44,5.44,0,0,0-.25,1.68v7.59H51.2V82.95Z" style="fill:#4b4b4c"/><path d="M75.17,95.53a6.1,6.1,0,0,1-3.8,1.14,6.91,6.91,0,0,1-2.79-.52,5.51,5.51,0,0,1-2-1.46,6.18,6.18,0,0,1-1.21-2.24,10.76,10.76,0,0,1-.46-2.83,8.09,8.09,0,0,1,.47-2.81,6.71,6.71,0,0,1,1.31-2.21,6,6,0,0,1,2-1.46,6.11,6.11,0,0,1,2.53-.52,5.52,5.52,0,0,1,3,.74,5.89,5.89,0,0,1,1.9,1.89,7.46,7.46,0,0,1,1,2.5,10.72,10.72,0,0,1,.22,2.57H67.26A5.34,5.34,0,0,0,67.47,92a3.8,3.8,0,0,0,.75,1.4,3.71,3.71,0,0,0,1.33,1,4.58,4.58,0,0,0,1.9.36,3.82,3.82,0,0,0,2.3-.65,3.14,3.14,0,0,0,1.18-2h2.18A5.37,5.37,0,0,1,75.17,95.53Zm-.53-8.63a3.79,3.79,0,0,0-.81-1.21,3.83,3.83,0,0,0-1.2-.81,3.78,3.78,0,0,0-1.52-.3,3.85,3.85,0,0,0-1.55.3,3.57,3.57,0,0,0-1.18.82,3.93,3.93,0,0,0-.78,1.21,4.6,4.6,0,0,0-.34,1.47H75A4.54,4.54,0,0,0,74.64,86.9Z" style="fill:#4b4b4c"/><path d="M92.12,98.19a14,14,0,0,1-.77,1.66,4.56,4.56,0,0,1-.83,1.1,2.82,2.82,0,0,1-1,.62,3.91,3.91,0,0,1-1.29.19,5.89,5.89,0,0,1-.78-.05,3.73,3.73,0,0,1-.75-.18v-2a3.73,3.73,0,0,0,.66.22,2.8,2.8,0,0,0,.64.09,1.9,1.9,0,0,0,1.13-.33,2,2,0,0,0,.69-.92l.91-2.26L85.39,82.95h2.5l3.93,11h.05l3.77-11H98Z" style="fill:#4b4b4c"/><path d="M109.36,95.53a6.1,6.1,0,0,1-3.8,1.14,6.91,6.91,0,0,1-2.79-.52,5.51,5.51,0,0,1-2-1.46,6.18,6.18,0,0,1-1.21-2.24,10.76,10.76,0,0,1-.46-2.83,8.09,8.09,0,0,1,.47-2.81,6.71,6.71,0,0,1,1.31-2.21,6,6,0,0,1,2-1.46,6.11,6.11,0,0,1,2.53-.52,5.52,5.52,0,0,1,3,.74,5.89,5.89,0,0,1,1.9,1.89,7.46,7.46,0,0,1,1,2.5,10.72,10.72,0,0,1,.22,2.57H101.45a5.34,5.34,0,0,0,.21,1.68,3.8,3.8,0,0,0,.75,1.4,3.71,3.71,0,0,0,1.33,1,4.58,4.58,0,0,0,1.9.36,3.82,3.82,0,0,0,2.3-.65,3.14,3.14,0,0,0,1.18-2h2.18A5.37,5.37,0,0,1,109.36,95.53Zm-.53-8.63a3.79,3.79,0,0,0-.81-1.21,3.83,3.83,0,0,0-1.2-.81,3.78,3.78,0,0,0-1.52-.3,3.85,3.85,0,0,0-1.55.3,3.57,3.57,0,0,0-1.18.82,3.93,3.93,0,0,0-.78,1.21,4.6,4.6,0,0,0-.34,1.47h7.72A4.54,4.54,0,0,0,108.83,86.9Z" style="fill:#4b4b4c"/><path d="M125.71,96.34a3.13,3.13,0,0,1-1.59.34,1.9,1.9,0,0,1-1.36-.48,2.09,2.09,0,0,1-.51-1.57,5.29,5.29,0,0,1-2.12,1.57,7.32,7.32,0,0,1-4.34.27,4,4,0,0,1-1.42-.65,3.12,3.12,0,0,1-.95-1.16,3.89,3.89,0,0,1-.35-1.73,4,4,0,0,1,.39-1.87,3.41,3.41,0,0,1,1-1.18,4.72,4.72,0,0,1,1.46-.69q.82-.23,1.68-.39t1.73-.27a9.54,9.54,0,0,0,1.44-.26,2.39,2.39,0,0,0,1-.49,1.2,1.2,0,0,0,.36-.95,2.2,2.2,0,0,0-.27-1.17,1.87,1.87,0,0,0-.7-.68,2.87,2.87,0,0,0-1-.31,7.3,7.3,0,0,0-1.05-.08,4.68,4.68,0,0,0-2.34.53,2.26,2.26,0,0,0-1,2H113.6a4.77,4.77,0,0,1,.52-2.11,3.94,3.94,0,0,1,1.25-1.39,5.25,5.25,0,0,1,1.78-.77,9.42,9.42,0,0,1,2.15-.23,12.62,12.62,0,0,1,1.81.13,4.73,4.73,0,0,1,1.63.53,3.12,3.12,0,0,1,1.17,1.13,3.61,3.61,0,0,1,.44,1.89v6.9a5.12,5.12,0,0,0,.09,1.14q.09.36.61.36a2.68,2.68,0,0,0,.68-.1Zm-3.59-6.89a2.75,2.75,0,0,1-1.09.45q-.68.14-1.42.23l-1.5.21a5.52,5.52,0,0,0-1.35.37,2.46,2.46,0,0,0-1,.74,2.06,2.06,0,0,0-.38,1.31,1.78,1.78,0,0,0,.22.92,1.83,1.83,0,0,0,.57.61,2.42,2.42,0,0,0,.82.34,4.57,4.57,0,0,0,1,.1,5.26,5.26,0,0,0,1.87-.3,3.93,3.93,0,0,0,1.27-.75,3,3,0,0,0,.73-1,2.48,2.48,0,0,0,.23-1Z" style="fill:#4b4b4c"/><path d="M129.77,82.95v2.83h.05a6,6,0,0,1,2-2.42,5,5,0,0,1,3-.73V85a6.25,6.25,0,0,0-2.26.36A3.56,3.56,0,0,0,131,86.41a4.39,4.39,0,0,0-.83,1.7,9.16,9.16,0,0,0-.26,2.3v6h-2.21V82.95Z" style="fill:#4b4b4c"/><path d="M145.94,82.95v1.82H146a3.31,3.31,0,0,1,1.72-1.62,6.4,6.4,0,0,1,2.57-.51,6.07,6.07,0,0,1,2.72.57,5.53,5.53,0,0,1,1.92,1.55A6.83,6.83,0,0,1,156.08,87a9.18,9.18,0,0,1,.39,2.7,9.49,9.49,0,0,1-.38,2.7,6.37,6.37,0,0,1-1.14,2.22,5.4,5.4,0,0,1-1.92,1.5,6.25,6.25,0,0,1-2.69.55,6.69,6.69,0,0,1-1.1-.1,6.18,6.18,0,0,1-1.21-.34,4.71,4.71,0,0,1-1.13-.64,3.55,3.55,0,0,1-.9-1h-.05v6.92h-2.21V82.95Zm7.94,4.77a5,5,0,0,0-.75-1.6,3.7,3.7,0,0,0-1.3-1.12,4,4,0,0,0-1.86-.42,3.65,3.65,0,0,0-3.17,1.6,4.83,4.83,0,0,0-.71,1.63,7.87,7.87,0,0,0,0,3.76,4.73,4.73,0,0,0,.74,1.63,3.78,3.78,0,0,0,1.31,1.13,4.1,4.1,0,0,0,1.95.43,3.78,3.78,0,0,0,1.91-.44,3.55,3.55,0,0,0,1.23-1.17,5.1,5.1,0,0,0,.68-1.66,8.84,8.84,0,0,0,.21-1.92A6.88,6.88,0,0,0,153.88,87.72Z" style="fill:#4b4b4c"/><path d="M161.07,82.95v2.83h.05a6,6,0,0,1,2-2.42,5,5,0,0,1,3-.73V85a6.25,6.25,0,0,0-2.26.36,3.56,3.56,0,0,0-1.51,1.07,4.39,4.39,0,0,0-.83,1.7,9.16,9.16,0,0,0-.26,2.3v6H159V82.95Z" style="fill:#4b4b4c"/><path d="M167.86,80.53v-2.7h2.21v2.7Zm2.21,2.42V96.39h-2.21V82.95Z" style="fill:#4b4b4c"/><path d="M173.19,86.91a6.26,6.26,0,0,1,1.25-2.24,5.87,5.87,0,0,1,2.05-1.5,7.53,7.53,0,0,1,5.63,0,5.91,5.91,0,0,1,2,1.5,6.28,6.28,0,0,1,1.25,2.24,9,9,0,0,1,.42,2.77,8.83,8.83,0,0,1-.42,2.76,6.29,6.29,0,0,1-1.25,2.22,5.77,5.77,0,0,1-2,1.48,7.7,7.7,0,0,1-5.63,0,5.73,5.73,0,0,1-2.05-1.48,6.27,6.27,0,0,1-1.25-2.22,8.83,8.83,0,0,1-.42-2.76A9,9,0,0,1,173.19,86.91Zm2.25,4.94a4.53,4.53,0,0,0,.9,1.59,3.88,3.88,0,0,0,1.34,1,4.08,4.08,0,0,0,3.25,0,3.88,3.88,0,0,0,1.34-1,4.55,4.55,0,0,0,.9-1.59,7.42,7.42,0,0,0,0-4.34,4.7,4.7,0,0,0-.9-1.6,3.82,3.82,0,0,0-1.34-1,4.07,4.07,0,0,0-3.25,0,3.82,3.82,0,0,0-1.34,1,4.68,4.68,0,0,0-.9,1.6,7.41,7.41,0,0,0,0,4.34Z" style="fill:#4b4b4c"/><path d="M190.42,82.95v2.83h.05a6,6,0,0,1,2-2.42,5,5,0,0,1,3-.73V85a6.25,6.25,0,0,0-2.26.36,3.56,3.56,0,0,0-1.51,1.07,4.39,4.39,0,0,0-.83,1.7,9.16,9.16,0,0,0-.26,2.3v6h-2.21V82.95Z" style="fill:#4b4b4c"/><path d="M197.21,80.53v-2.7h2.21v2.7Zm2.21,2.42V96.39h-2.21V82.95Z" style="fill:#4b4b4c"/><path d="M208.6,82.95V84.9h-2.68v8.35a2.41,2.41,0,0,0,.06.62.64.64,0,0,0,.25.36,1.09,1.09,0,0,0,.51.17,7.41,7.41,0,0,0,.85,0h1v2h-1.69a7.92,7.92,0,0,1-1.47-.12,2.15,2.15,0,0,1-1-.43,1.83,1.83,0,0,1-.56-.88,5.1,5.1,0,0,1-.18-1.51V84.9h-2.29V82.95h2.29v-4h2.21v4Z" style="fill:#4b4b4c"/><path d="M216.32,98.19a14,14,0,0,1-.77,1.66,4.56,4.56,0,0,1-.83,1.1,2.82,2.82,0,0,1-1,.62,3.91,3.91,0,0,1-1.29.19,5.89,5.89,0,0,1-.78-.05,3.73,3.73,0,0,1-.75-.18v-2a3.73,3.73,0,0,0,.66.22,2.8,2.8,0,0,0,.64.09,1.9,1.9,0,0,0,1.13-.33,2,2,0,0,0,.69-.92l.91-2.26-5.33-13.36h2.5l3.93,11h.05l3.77-11h2.34Z" style="fill:#4b4b4c"/><path d="M240.79,95.53a6.1,6.1,0,0,1-3.8,1.14,6.91,6.91,0,0,1-2.79-.52,5.51,5.51,0,0,1-2-1.46A6.18,6.18,0,0,1,231,92.47a10.76,10.76,0,0,1-.46-2.83,8.09,8.09,0,0,1,.47-2.81,6.71,6.71,0,0,1,1.31-2.21,6,6,0,0,1,2-1.46,6.11,6.11,0,0,1,2.53-.52,5.52,5.52,0,0,1,3,.74,5.89,5.89,0,0,1,1.9,1.89,7.46,7.46,0,0,1,1,2.5,10.72,10.72,0,0,1,.22,2.57H232.88a5.34,5.34,0,0,0,.21,1.68,3.8,3.8,0,0,0,.75,1.4,3.71,3.71,0,0,0,1.33,1,4.58,4.58,0,0,0,1.9.36,3.82,3.82,0,0,0,2.3-.65,3.14,3.14,0,0,0,1.18-2h2.18A5.37,5.37,0,0,1,240.79,95.53Zm-.53-8.63a3.79,3.79,0,0,0-.81-1.21,3.83,3.83,0,0,0-1.2-.81,3.78,3.78,0,0,0-1.52-.3,3.85,3.85,0,0,0-1.55.3,3.57,3.57,0,0,0-1.18.82,3.93,3.93,0,0,0-.78,1.21,4.6,4.6,0,0,0-.34,1.47h7.72A4.54,4.54,0,0,0,240.25,86.9Z" style="fill:#4b4b4c"/><path d="M247.31,82.95v2h.05a5.24,5.24,0,0,1,6.6-1.77,2.91,2.91,0,0,1,1.43,1.77,4.69,4.69,0,0,1,1.78-1.69,5,5,0,0,1,2.43-.6,7.05,7.05,0,0,1,1.83.22,3.81,3.81,0,0,1,1.4.69,3.12,3.12,0,0,1,.91,1.21,4.41,4.41,0,0,1,.33,1.78v9.85h-2.21V87.58a6.29,6.29,0,0,0-.1-1.17,2.4,2.4,0,0,0-.39-.95,2,2,0,0,0-.79-.64,3.15,3.15,0,0,0-1.31-.23,3.48,3.48,0,0,0-2.57.94,3.37,3.37,0,0,0-.94,2.5v8.37h-2.21V87.58a5.74,5.74,0,0,0-.12-1.2,2.55,2.55,0,0,0-.4-.95,1.89,1.89,0,0,0-.77-.62,3,3,0,0,0-1.23-.22,3.3,3.3,0,0,0-1.65.39A3.74,3.74,0,0,0,247.64,87a3.21,3.21,0,0,0-.19,1v8.37h-2.21V82.95Z" style="fill:#4b4b4c"/><path d="M279.32,96.34a3.13,3.13,0,0,1-1.59.34,1.9,1.9,0,0,1-1.36-.48,2.09,2.09,0,0,1-.51-1.57,5.29,5.29,0,0,1-2.12,1.57,7.32,7.32,0,0,1-4.34.27,4,4,0,0,1-1.42-.65,3.12,3.12,0,0,1-.95-1.16,3.89,3.89,0,0,1-.35-1.73,4,4,0,0,1,.39-1.87,3.41,3.41,0,0,1,1-1.18,4.72,4.72,0,0,1,1.46-.69q.82-.23,1.68-.39t1.73-.27a9.54,9.54,0,0,0,1.44-.26,2.39,2.39,0,0,0,1-.49,1.2,1.2,0,0,0,.36-.95,2.2,2.2,0,0,0-.27-1.17,1.87,1.87,0,0,0-.7-.68,2.87,2.87,0,0,0-1-.31,7.3,7.3,0,0,0-1.05-.08,4.68,4.68,0,0,0-2.34.53,2.26,2.26,0,0,0-1,2H267.2a4.77,4.77,0,0,1,.52-2.11A3.94,3.94,0,0,1,269,83.64a5.25,5.25,0,0,1,1.78-.77,9.42,9.42,0,0,1,2.15-.23,12.62,12.62,0,0,1,1.81.13,4.73,4.73,0,0,1,1.63.53,3.12,3.12,0,0,1,1.17,1.13,3.61,3.61,0,0,1,.44,1.89v6.9a5.12,5.12,0,0,0,.09,1.14q.09.36.61.36a2.68,2.68,0,0,0,.68-.1Zm-3.59-6.89a2.75,2.75,0,0,1-1.09.45q-.68.14-1.42.23l-1.5.21a5.52,5.52,0,0,0-1.35.37,2.46,2.46,0,0,0-1,.74,2.06,2.06,0,0,0-.38,1.31,1.78,1.78,0,0,0,.22.92,1.83,1.83,0,0,0,.57.61,2.42,2.42,0,0,0,.82.34,4.57,4.57,0,0,0,1,.1,5.26,5.26,0,0,0,1.87-.3,3.93,3.93,0,0,0,1.27-.75,3,3,0,0,0,.73-1,2.48,2.48,0,0,0,.23-1Z" style="fill:#4b4b4c"/><path d="M281.5,80.53v-2.7h2.21v2.7Zm2.21,2.42V96.39H281.5V82.95Z" style="fill:#4b4b4c"/><path d="M289.48,77.83V96.39h-2.21V77.83Z" style="fill:#4b4b4c"/><path d="M301.83,93.39a2.35,2.35,0,0,0,.82.81,3.68,3.68,0,0,0,1.14.43,6.53,6.53,0,0,0,1.31.13,8.14,8.14,0,0,0,1.09-.08,4,4,0,0,0,1.05-.29,2,2,0,0,0,.79-.61,1.63,1.63,0,0,0,.31-1,1.47,1.47,0,0,0-.65-1.3,5.53,5.53,0,0,0-1.62-.71q-1-.27-2.12-.49a10.94,10.94,0,0,1-2.12-.62,4.38,4.38,0,0,1-1.62-1.13,2.94,2.94,0,0,1-.65-2,3.22,3.22,0,0,1,.46-1.74,3.72,3.72,0,0,1,1.17-1.18,5.38,5.38,0,0,1,1.61-.68,7.44,7.44,0,0,1,1.78-.22,10.62,10.62,0,0,1,2.11.19,4.87,4.87,0,0,1,1.7.68,3.5,3.5,0,0,1,1.18,1.3,4.94,4.94,0,0,1,.52,2h-2.21a2.25,2.25,0,0,0-.34-1.08,2.22,2.22,0,0,0-.73-.69,3.33,3.33,0,0,0-1-.38,5,5,0,0,0-1.08-.12,6.6,6.6,0,0,0-1,.08,3.38,3.38,0,0,0-.92.27,1.86,1.86,0,0,0-.68.52,1.31,1.31,0,0,0-.26.85,1.24,1.24,0,0,0,.4.95,3.21,3.21,0,0,0,1,.62,8.92,8.92,0,0,0,1.4.42l1.56.35q.83.18,1.63.44a5.33,5.33,0,0,1,1.4.69,3.37,3.37,0,0,1,1,1.08,3.17,3.17,0,0,1,.38,1.61,3.74,3.74,0,0,1-.51,2,4,4,0,0,1-1.33,1.3,5.54,5.54,0,0,1-1.85.69,10.9,10.9,0,0,1-2,.2,9.44,9.44,0,0,1-2.13-.23,5.22,5.22,0,0,1-1.79-.77,3.91,3.91,0,0,1-1.25-1.4,4.85,4.85,0,0,1-.52-2.12h2.21A2.48,2.48,0,0,0,301.83,93.39Z" style="fill:#4b4b4c"/><path d="M322.19,96.39V94.26h-.05a4.52,4.52,0,0,1-1.79,1.83,5.38,5.38,0,0,1-2.57.58,6,6,0,0,1-2.21-.35,3.52,3.52,0,0,1-1.43-1,3.77,3.77,0,0,1-.77-1.55,8.32,8.32,0,0,1-.22-2V82.95h2.21V92a2.67,2.67,0,0,0,.73,2,2.7,2.7,0,0,0,2,.73,4.5,4.5,0,0,0,1.75-.31,3.29,3.29,0,0,0,1.24-.88,3.82,3.82,0,0,0,.74-1.34,5.45,5.45,0,0,0,.25-1.68V82.95h2.21V96.39Z" style="fill:#4b4b4c"/><path d="M329.89,82.95v1.82h.05a3.31,3.31,0,0,1,1.72-1.62,6.4,6.4,0,0,1,2.57-.51,6.07,6.07,0,0,1,2.72.57,5.53,5.53,0,0,1,1.92,1.55A6.83,6.83,0,0,1,340,87a9.18,9.18,0,0,1,.39,2.7,9.49,9.49,0,0,1-.38,2.7,6.37,6.37,0,0,1-1.14,2.22,5.4,5.4,0,0,1-1.92,1.5,6.25,6.25,0,0,1-2.69.55,6.69,6.69,0,0,1-1.1-.1,6.18,6.18,0,0,1-1.21-.34,4.71,4.71,0,0,1-1.13-.64,3.55,3.55,0,0,1-.9-1h-.05v6.92h-2.21V82.95Zm7.94,4.77a5,5,0,0,0-.75-1.6,3.7,3.7,0,0,0-1.3-1.12,4,4,0,0,0-1.86-.42,3.65,3.65,0,0,0-3.17,1.6,4.83,4.83,0,0,0-.71,1.63,7.87,7.87,0,0,0,0,3.76,4.73,4.73,0,0,0,.74,1.63,3.78,3.78,0,0,0,1.31,1.13,4.1,4.1,0,0,0,1.95.43,3.78,3.78,0,0,0,1.91-.44,3.55,3.55,0,0,0,1.23-1.17,5.1,5.1,0,0,0,.68-1.66,8.84,8.84,0,0,0,.21-1.92A6.88,6.88,0,0,0,337.83,87.72Z" style="fill:#4b4b4c"/><path d="M345.3,82.95v1.82h.05a3.31,3.31,0,0,1,1.72-1.62,6.4,6.4,0,0,1,2.57-.51,6.07,6.07,0,0,1,2.72.57,5.53,5.53,0,0,1,1.92,1.55A6.83,6.83,0,0,1,355.44,87a9.18,9.18,0,0,1,.39,2.7,9.49,9.49,0,0,1-.38,2.7,6.37,6.37,0,0,1-1.14,2.22,5.4,5.4,0,0,1-1.92,1.5,6.25,6.25,0,0,1-2.69.55,6.69,6.69,0,0,1-1.1-.1,6.18,6.18,0,0,1-1.21-.34,4.71,4.71,0,0,1-1.13-.64,3.55,3.55,0,0,1-.9-1h-.05v6.92h-2.21V82.95Zm7.94,4.77a5,5,0,0,0-.75-1.6,3.7,3.7,0,0,0-1.3-1.12,4,4,0,0,0-1.86-.42,3.65,3.65,0,0,0-3.17,1.6,4.83,4.83,0,0,0-.71,1.63,7.87,7.87,0,0,0,0,3.76,4.73,4.73,0,0,0,.74,1.63,3.78,3.78,0,0,0,1.31,1.13,4.1,4.1,0,0,0,1.95.43,3.78,3.78,0,0,0,1.91-.44,3.55,3.55,0,0,0,1.23-1.17,5.1,5.1,0,0,0,.68-1.66,8.84,8.84,0,0,0,.21-1.92A6.88,6.88,0,0,0,353.25,87.72Z" style="fill:#4b4b4c"/><path d="M358.12,86.91a6.26,6.26,0,0,1,1.25-2.24,5.87,5.87,0,0,1,2.05-1.5,7.53,7.53,0,0,1,5.63,0,5.91,5.91,0,0,1,2,1.5,6.28,6.28,0,0,1,1.25,2.24,9,9,0,0,1,.42,2.77,8.83,8.83,0,0,1-.42,2.76,6.29,6.29,0,0,1-1.25,2.22,5.77,5.77,0,0,1-2,1.48,7.7,7.7,0,0,1-5.63,0,5.73,5.73,0,0,1-2.05-1.48,6.27,6.27,0,0,1-1.25-2.22,8.83,8.83,0,0,1-.42-2.76A9,9,0,0,1,358.12,86.91Zm2.25,4.94a4.53,4.53,0,0,0,.9,1.59,3.88,3.88,0,0,0,1.34,1,4.08,4.08,0,0,0,3.25,0,3.88,3.88,0,0,0,1.34-1,4.55,4.55,0,0,0,.9-1.59,7.42,7.42,0,0,0,0-4.34,4.7,4.7,0,0,0-.9-1.6,3.82,3.82,0,0,0-1.34-1,4.07,4.07,0,0,0-3.25,0,3.82,3.82,0,0,0-1.34,1,4.68,4.68,0,0,0-.9,1.6,7.41,7.41,0,0,0,0,4.34Z" style="fill:#4b4b4c"/><path d="M375.36,82.95v2.83h.05a6,6,0,0,1,2-2.42,5,5,0,0,1,3-.73V85a6.25,6.25,0,0,0-2.26.36,3.56,3.56,0,0,0-1.51,1.07,4.39,4.39,0,0,0-.83,1.7,9.16,9.16,0,0,0-.26,2.3v6h-2.21V82.95Z" style="fill:#4b4b4c"/><path d="M387.76,82.95V84.9h-2.68v8.35a2.41,2.41,0,0,0,.06.62.64.64,0,0,0,.25.36,1.09,1.09,0,0,0,.51.17,7.41,7.41,0,0,0,.85,0h1v2h-1.69a7.92,7.92,0,0,1-1.47-.12,2.15,2.15,0,0,1-1-.43,1.83,1.83,0,0,1-.56-.88,5.1,5.1,0,0,1-.18-1.51V84.9h-2.29V82.95h2.29v-4h2.21v4Z" style="fill:#4b4b4c"/><path d="M800,105.26c0-1.49,0-2.69-.1-3.79h1.9l.1,2h0a4.57,4.57,0,0,1,4.13-2.26c2.81,0,4.92,2.38,4.92,5.9,0,4.18-2.54,6.24-5.28,6.24a4.08,4.08,0,0,1-3.58-1.82h0v6.31H800Zm2.09,3.1a4.73,4.73,0,0,0,.1.86,3.26,3.26,0,0,0,3.17,2.47c2.23,0,3.53-1.82,3.53-4.49,0-2.33-1.22-4.32-3.46-4.32a3.37,3.37,0,0,0-3.19,2.62,3.41,3.41,0,0,0-.14.86Z" style="fill:#888"/><path d="M820,113.09l-.17-1.46h-.07a4.33,4.33,0,0,1-3.55,1.73A3.31,3.31,0,0,1,812.7,110c0-2.81,2.5-4.34,7-4.32v-.24a2.39,2.39,0,0,0-2.64-2.69,5.79,5.79,0,0,0-3,.86l-.48-1.39a7.21,7.21,0,0,1,3.82-1c3.55,0,4.42,2.42,4.42,4.75v4.34a16.36,16.36,0,0,0,.19,2.78Zm-.31-5.93c-2.3,0-4.92.36-4.92,2.62a1.87,1.87,0,0,0,2,2,2.89,2.89,0,0,0,2.81-1.94,2.2,2.2,0,0,0,.12-.67Z" style="fill:#888"/><path d="M825.75,101.47l2.54,6.86c.26.77.55,1.68.74,2.38h0c.22-.7.46-1.58.74-2.42l2.3-6.82h2.23l-3.17,8.28c-1.51,4-2.54,6-4,7.27a5.73,5.73,0,0,1-2.59,1.37l-.53-1.78a5.58,5.58,0,0,0,1.85-1,6.41,6.41,0,0,0,1.78-2.35,1.51,1.51,0,0,0,.17-.5,1.84,1.84,0,0,0-.14-.55l-4.3-10.71Z" style="fill:#888"/><path d="M836.29,104.62c0-1.2,0-2.18-.1-3.14H838l.1,1.87h.07a4,4,0,0,1,3.65-2.14,3.43,3.43,0,0,1,3.29,2.33h0a4.79,4.79,0,0,1,1.3-1.51,4,4,0,0,1,2.57-.82c1.54,0,3.82,1,3.82,5v6.84h-2.06v-6.58c0-2.23-.82-3.58-2.52-3.58a2.74,2.74,0,0,0-2.5,1.92,3.49,3.49,0,0,0-.17,1.06v7.18h-2.06v-7c0-1.85-.82-3.19-2.42-3.19a3.15,3.15,0,0,0-2.78,3.14v7h-2.06Z" style="fill:#888"/><path d="M857.48,107.66a3.72,3.72,0,0,0,4,4,7.64,7.64,0,0,0,3.22-.6l.36,1.51a9.41,9.41,0,0,1-3.86.72c-3.58,0-5.71-2.35-5.71-5.86s2.06-6.26,5.45-6.26c3.79,0,4.8,3.34,4.8,5.47a8,8,0,0,1-.07,1Zm6.19-1.51c0-1.34-.55-3.43-2.93-3.43-2.14,0-3.07,2-3.24,3.43Z" style="fill:#888"/><path d="M868.33,104.62c0-1.2,0-2.18-.1-3.14h1.87l.12,1.92h0a4.27,4.27,0,0,1,3.84-2.18c1.61,0,4.1,1,4.1,4.94v6.94h-2.11v-6.7c0-1.87-.7-3.43-2.69-3.43a3,3,0,0,0-2.83,2.16,3,3,0,0,0-.14,1v7h-2.11Z" style="fill:#888"/><path d="M884.1,98.14v3.34h3v1.61h-3v6.26c0,1.44.41,2.26,1.58,2.26a4.68,4.68,0,0,0,1.22-.14L887,113a5.17,5.17,0,0,1-1.87.29,2.93,2.93,0,0,1-2.28-.89,4.3,4.3,0,0,1-.82-3v-6.34h-1.8v-1.61H882V98.69Z" style="fill:#888"/><path d="M889.21,110.93a5.53,5.53,0,0,0,2.78.84c1.54,0,2.26-.77,2.26-1.73s-.6-1.56-2.16-2.14c-2.09-.74-3.07-1.9-3.07-3.29,0-1.87,1.51-3.41,4-3.41a5.8,5.8,0,0,1,2.86.72l-.53,1.54a4.52,4.52,0,0,0-2.38-.67c-1.25,0-1.94.72-1.94,1.58s.7,1.39,2.21,2c2,.77,3,1.78,3,3.5,0,2-1.58,3.48-4.34,3.48a6.62,6.62,0,0,1-3.26-.79Z" style="fill:#888"/><path d="M904,113.09c0-.79.1-2,.1-3V96h2.09v7.3h0a4.33,4.33,0,0,1,4-2.14c2.88,0,4.92,2.4,4.9,5.93,0,4.15-2.62,6.22-5.21,6.22a4.14,4.14,0,0,1-3.89-2.18h-.07l-.1,1.92Zm2.18-4.66a3.93,3.93,0,0,0,.1.77,3.26,3.26,0,0,0,3.17,2.47c2.21,0,3.53-1.8,3.53-4.46,0-2.33-1.2-4.32-3.46-4.32a3.37,3.37,0,0,0-3.22,2.59,4.14,4.14,0,0,0-.12.86Z" style="fill:#888"/><path d="M918.34,101.47l2.54,6.86c.26.77.55,1.68.74,2.38h0c.22-.7.46-1.58.74-2.42l2.3-6.82H927l-3.17,8.28c-1.51,4-2.54,6-4,7.27a5.73,5.73,0,0,1-2.59,1.37l-.53-1.78a5.58,5.58,0,0,0,1.85-1,6.41,6.41,0,0,0,1.78-2.35,1.51,1.51,0,0,0,.17-.5,1.84,1.84,0,0,0-.14-.55L916,101.47Z" style="fill:#888"/><path d="M933.66,109.9a7.13,7.13,0,0,0,3.14.89c1.1,0,1.56-.38,1.56-1s-.36-.89-1.73-1.34c-2.42-.82-3.36-2.14-3.34-3.53,0-2.18,1.87-3.84,4.78-3.84a7.88,7.88,0,0,1,3.31.67l-.65,2.52a5.76,5.76,0,0,0-2.54-.67c-.89,0-1.39.36-1.39,1s.46.84,1.9,1.34c2.23.77,3.17,1.9,3.19,3.62,0,2.18-1.73,3.79-5.09,3.79a8.31,8.31,0,0,1-3.79-.82Z" style="fill:#888"/><path d="M948.18,98v3.36h2.62V104h-2.62v4.25c0,1.42.34,2.06,1.44,2.06a6,6,0,0,0,1.08-.1l0,2.76a7.16,7.16,0,0,1-2.38.31,3.8,3.8,0,0,1-2.74-1,4.86,4.86,0,0,1-1-3.48V104H943v-2.69h1.56V98.81Z" style="fill:#888"/><path d="M952.9,105.22c0-1.73,0-2.86-.1-3.86H956l.12,2.16h.1a3.45,3.45,0,0,1,3.17-2.42,3.77,3.77,0,0,1,.77,0v3.43a5.19,5.19,0,0,0-1-.1,2.35,2.35,0,0,0-2.5,1.85,4.27,4.27,0,0,0-.07.82v6H952.9Z" style="fill:#888"/><path d="M965.79,98.09a1.83,1.83,0,0,1-2,1.82,1.84,1.84,0,1,1,0-3.67A1.83,1.83,0,0,1,965.79,98.09Zm-3.77,15V101.35h3.65v11.74Z" style="fill:#888"/><path d="M968.6,105.29c0-1.54,0-2.86-.1-3.94h3.17l.17,1.63h0a4.5,4.5,0,0,1,3.91-1.9c2.57,0,4.87,2.23,4.87,6,0,4.27-2.71,6.29-5.33,6.29a3.64,3.64,0,0,1-3-1.34h0v5.83H968.6Zm3.65,2.76a3.61,3.61,0,0,0,.07.77,2.21,2.21,0,0,0,2.14,1.73c1.58,0,2.52-1.32,2.52-3.31s-.84-3.29-2.47-3.29a2.29,2.29,0,0,0-2.18,1.85,2.81,2.81,0,0,0-.07.65Z" style="fill:#888"/><path d="M985.83,108.38c.12,1.51,1.61,2.23,3.31,2.23a10.33,10.33,0,0,0,3.24-.48l.48,2.47a11.59,11.59,0,0,1-4.25.72c-4,0-6.26-2.3-6.26-6,0-3,1.85-6.26,5.93-6.26,3.79,0,5.23,3,5.23,5.86a8.67,8.67,0,0,1-.12,1.44Zm4.3-2.5a2.12,2.12,0,0,0-2.06-2.38,2.39,2.39,0,0,0-2.26,2.38Z" style="fill:#888"/><rect x="798.56" y="30.91" width="194.88" height="51.07" rx="4.81" ry="4.81" style="fill:#fff;stroke:#4c1;stroke-miterlimit:10;stroke-width:4.2px"/><path d="M849.37,46.67a7.5,7.5,0,0,1,2.87.49,5.38,5.38,0,0,1,1.93,1.3,5,5,0,0,1,1.08,1.84,6.87,6.87,0,0,1,0,4.27,5,5,0,0,1-1.08,1.85,5.38,5.38,0,0,1-1.93,1.3,7.51,7.51,0,0,1-2.87.49h-4.16v6.45h-4v-18Zm-1.08,8.47a8.27,8.27,0,0,0,1.31-.1,3,3,0,0,0,1.11-.39,2.13,2.13,0,0,0,.77-.82,3.46,3.46,0,0,0,0-2.77,2.13,2.13,0,0,0-.77-.82,3,3,0,0,0-1.11-.39,8.27,8.27,0,0,0-1.31-.1h-3.07v5.39Z" style="fill:#4d4d4d"/><path d="M866.5,64.66V62.85h-.08a4,4,0,0,1-1.76,1.64,5.21,5.21,0,0,1-2.22.5,6.26,6.26,0,0,1-2.36-.38,3.4,3.4,0,0,1-1.45-1.07,4.19,4.19,0,0,1-.74-1.69,10.48,10.48,0,0,1-.21-2.21v-8h3.58V59a4.56,4.56,0,0,0,.5,2.41,2,2,0,0,0,1.79.79,2.48,2.48,0,0,0,2.12-.87,4.84,4.84,0,0,0,.66-2.86V51.64h3.58v13Z" style="fill:#4d4d4d"/><path d="M876,51.64v2.42h.05a4.39,4.39,0,0,1,.68-1.12,4.47,4.47,0,0,1,1-.88,4.82,4.82,0,0,1,1.18-.57,4.28,4.28,0,0,1,1.31-.2,2.81,2.81,0,0,1,.78.13v3.33l-.6-.09a6.47,6.47,0,0,0-.68,0,3.81,3.81,0,0,0-1.66.33,2.88,2.88,0,0,0-1.1.89,3.58,3.58,0,0,0-.59,1.32,7.2,7.2,0,0,0-.18,1.64v5.87h-3.58v-13Z" style="fill:#4d4d4d"/><path d="M888.2,54a2.51,2.51,0,0,0-1.44.39,3.11,3.11,0,0,0-.95,1,4.36,4.36,0,0,0-.52,1.36,7.39,7.39,0,0,0-.15,1.47,7.09,7.09,0,0,0,.15,1.44,4.44,4.44,0,0,0,.49,1.32,2.82,2.82,0,0,0,.92,1,2.53,2.53,0,0,0,1.41.38,2.62,2.62,0,0,0,2-.72,3.4,3.4,0,0,0,.87-1.93h3.45a5.9,5.9,0,0,1-2,4A6.51,6.51,0,0,1,888.15,65a7.14,7.14,0,0,1-2.68-.49,5.94,5.94,0,0,1-2.08-1.37,6.24,6.24,0,0,1-1.34-2.1,7.29,7.29,0,0,1-.48-2.68,8.68,8.68,0,0,1,.44-2.81,6.32,6.32,0,0,1,1.3-2.24,6,6,0,0,1,2.09-1.47,7.11,7.11,0,0,1,2.82-.53,8.17,8.17,0,0,1,2.23.3,6,6,0,0,1,1.92.92,4.76,4.76,0,0,1,2,3.72h-3.5A2.4,2.4,0,0,0,888.2,54Z" style="fill:#4d4d4d"/><path d="M900,46.67v6.78h.08a4.14,4.14,0,0,1,1.74-1.65,4.7,4.7,0,0,1,2.07-.52,6.08,6.08,0,0,1,2.36.39,3.5,3.5,0,0,1,1.45,1.08,4.2,4.2,0,0,1,.74,1.69,10.52,10.52,0,0,1,.21,2.21v8h-3.58V57.31a4.57,4.57,0,0,0-.5-2.41,2,2,0,0,0-1.79-.79,2.48,2.48,0,0,0-2.12.87,4.83,4.83,0,0,0-.66,2.86v6.83h-3.58v-18Z" style="fill:#4d4d4d"/><path d="M911.23,55.64a4.15,4.15,0,0,1,.63-2.09,4.29,4.29,0,0,1,1.41-1.34,6.15,6.15,0,0,1,1.93-.72,11,11,0,0,1,2.15-.21,14.63,14.63,0,0,1,2,.14,6.11,6.11,0,0,1,1.84.54,3.63,3.63,0,0,1,1.36,1.12,3.13,3.13,0,0,1,.53,1.9v6.78a13.58,13.58,0,0,0,.1,1.69,3,3,0,0,0,.35,1.21H919.9a5,5,0,0,1-.16-.62,5.24,5.24,0,0,1-.09-.64,4.66,4.66,0,0,1-2,1.23,8.09,8.09,0,0,1-2.37.35,6.39,6.39,0,0,1-1.74-.23,4,4,0,0,1-1.41-.71,3.28,3.28,0,0,1-.95-1.21,4.09,4.09,0,0,1-.34-1.74,3.8,3.8,0,0,1,.39-1.83,3.27,3.27,0,0,1,1-1.15,4.52,4.52,0,0,1,1.41-.64,15.24,15.24,0,0,1,1.6-.34q.81-.13,1.59-.2a9.57,9.57,0,0,0,1.39-.23,2.41,2.41,0,0,0,1-.44,1,1,0,0,0,.33-.84,1.9,1.9,0,0,0-.19-.92,1.39,1.39,0,0,0-.5-.53,2,2,0,0,0-.73-.25,6,6,0,0,0-.89-.06,2.72,2.72,0,0,0-1.66.45,2,2,0,0,0-.71,1.51Zm8.27,2.65a1.6,1.6,0,0,1-.57.31,5.76,5.76,0,0,1-.73.19q-.39.08-.82.13l-.86.13a6.45,6.45,0,0,0-.79.2,2.36,2.36,0,0,0-.68.34,1.62,1.62,0,0,0-.47.54,1.74,1.74,0,0,0-.18.83,1.68,1.68,0,0,0,.18.81,1.35,1.35,0,0,0,.48.52,2,2,0,0,0,.71.26,4.51,4.51,0,0,0,.83.08,3.16,3.16,0,0,0,1.64-.35,2.36,2.36,0,0,0,.86-.84,2.69,2.69,0,0,0,.34-1,6.84,6.84,0,0,0,.06-.81Z" style="fill:#4d4d4d"/><path d="M928.86,61.43a2.1,2.1,0,0,0,.62.68,2.65,2.65,0,0,0,.87.39,4.09,4.09,0,0,0,1,.13,3.81,3.81,0,0,0,.79-.09,2.69,2.69,0,0,0,.76-.28,1.71,1.71,0,0,0,.57-.5,1.33,1.33,0,0,0,.23-.79q0-.81-1.07-1.21a21.43,21.43,0,0,0-3-.81q-.78-.18-1.52-.42a5.19,5.19,0,0,1-1.32-.63,3.05,3.05,0,0,1-.93-1,2.78,2.78,0,0,1-.35-1.45A3.92,3.92,0,0,1,926,53.4a3.63,3.63,0,0,1,1.3-1.27,5.7,5.7,0,0,1,1.81-.66,11.19,11.19,0,0,1,2.07-.19,10.33,10.33,0,0,1,2.05.2,5.44,5.44,0,0,1,1.78.68,4.08,4.08,0,0,1,1.3,1.27,4.28,4.28,0,0,1,.62,2h-3.4a1.57,1.57,0,0,0-.78-1.4,3.57,3.57,0,0,0-1.66-.37,6.13,6.13,0,0,0-.66,0,2.17,2.17,0,0,0-.64.16,1.33,1.33,0,0,0-.49.37,1,1,0,0,0-.2.64,1,1,0,0,0,.35.78,2.72,2.72,0,0,0,.92.49,11.43,11.43,0,0,0,1.3.34l1.49.33a15.29,15.29,0,0,1,1.52.43,5,5,0,0,1,1.32.67,3.24,3.24,0,0,1,.93,1,3,3,0,0,1,.35,1.52A4,4,0,0,1,935.43,64a5.53,5.53,0,0,1-1.9.74,11.11,11.11,0,0,1-2.18.21,10.79,10.79,0,0,1-2.22-.23A5.84,5.84,0,0,1,927.2,64a4.31,4.31,0,0,1-1.39-1.4,4.37,4.37,0,0,1-.59-2.18h3.4A2,2,0,0,0,928.86,61.43Z" style="fill:#4d4d4d"/><path d="M943.21,61.54a3.67,3.67,0,0,0,4.18.24,2.25,2.25,0,0,0,1-1.15h3.15A6,6,0,0,1,949.18,64a6.83,6.83,0,0,1-3.78,1,7.45,7.45,0,0,1-2.77-.49,5.76,5.76,0,0,1-2.09-1.4,6.29,6.29,0,0,1-1.32-2.17,7.93,7.93,0,0,1-.47-2.77,7.6,7.6,0,0,1,.48-2.72,6.3,6.3,0,0,1,3.47-3.63,6.75,6.75,0,0,1,2.71-.53,6.2,6.2,0,0,1,2.9.64,5.79,5.79,0,0,1,2,1.73,7.11,7.11,0,0,1,1.15,2.47,9.22,9.22,0,0,1,.25,2.9h-9.4A3.61,3.61,0,0,0,943.21,61.54Zm4-6.85a2.51,2.51,0,0,0-2-.71,3.12,3.12,0,0,0-1.42.29A2.72,2.72,0,0,0,943,55a2.63,2.63,0,0,0-.48.91,4.07,4.07,0,0,0-.16.86h5.82A4.14,4.14,0,0,0,947.26,54.69Z" style="fill:#4d4d4d"/></svg>