<svg id="2a33d1ca-52e9-4108-8218-77aee60b40fb" data-name="Layer 1" xmlns="http://www.w3.org/2000/svg" viewBox="0 0 1024 150"><title>offers</title><rect width="1024" height="150" style="fill:#f8f8ff"/><path d="M53.89,26.13v5.28H38.81v6.12H52.65v4.88H38.81v7h15.4v5.28H32.53V26.13Z" style="fill:#006bdf"/><path d="M63.25,34v2.88h.12a6.51,6.51,0,0,1,2.8-2.62,8.1,8.1,0,0,1,3.52-.82,9.66,9.66,0,0,1,3.74.62,5.55,5.55,0,0,1,2.3,1.72,6.67,6.67,0,0,1,1.18,2.68,16.72,16.72,0,0,1,.34,3.5V54.69H71.57V43a7.25,7.25,0,0,0-.8-3.82,3.1,3.1,0,0,0-2.84-1.26,3.94,3.94,0,0,0-3.36,1.38,7.67,7.67,0,0,0-1,4.54V54.69H57.85V34Z" style="fill:#006bdf"/><path d="M92.93,34v3.8H88.77V48A2.78,2.78,0,0,0,89.25,50a2.78,2.78,0,0,0,1.92.48c.32,0,.63,0,.92,0a7.81,7.81,0,0,0,.84-.12v4.4a13.54,13.54,0,0,1-1.6.16q-.88,0-1.72,0a16.56,16.56,0,0,1-2.5-.18A5.89,5.89,0,0,1,85,54a3.7,3.7,0,0,1-1.42-1.48A5.28,5.28,0,0,1,83.09,50V37.81H79.65V34h3.44v-6.2h5.68V34Z" style="fill:#006bdf"/><path d="M101.73,49.73a5.82,5.82,0,0,0,6.64.38,3.57,3.57,0,0,0,1.52-1.82h5a9.49,9.49,0,0,1-3.68,5.32,10.83,10.83,0,0,1-6,1.6,11.82,11.82,0,0,1-4.4-.78,9.15,9.15,0,0,1-3.32-2.22,10,10,0,0,1-2.1-3.44,12.58,12.58,0,0,1-.74-4.4A12.06,12.06,0,0,1,95.41,40a10,10,0,0,1,5.5-5.76,10.71,10.71,0,0,1,4.3-.84,9.84,9.84,0,0,1,4.6,1A9.18,9.18,0,0,1,113,37.21a11.27,11.27,0,0,1,1.82,3.92,14.62,14.62,0,0,1,.4,4.6H100.33A5.74,5.74,0,0,0,101.73,49.73Zm6.42-10.88a4,4,0,0,0-3.1-1.12,5,5,0,0,0-2.26.46,4.31,4.31,0,0,0-1.44,1.14,4.17,4.17,0,0,0-.76,1.44,6.48,6.48,0,0,0-.26,1.36h9.24A6.57,6.57,0,0,0,108.15,38.85Z" style="fill:#006bdf"/><path d="M124,34v3.84h.08a7,7,0,0,1,1.08-1.78,7.09,7.09,0,0,1,1.56-1.4,7.65,7.65,0,0,1,1.88-.9,6.78,6.78,0,0,1,2.08-.32,4.43,4.43,0,0,1,1.24.2v5.28q-.4-.08-1-.14a10.15,10.15,0,0,0-1.08-.06,6.06,6.06,0,0,0-2.64.52,4.57,4.57,0,0,0-1.74,1.42,5.68,5.68,0,0,0-.94,2.1,11.41,11.41,0,0,0-.28,2.6v9.32h-5.68V34Z" style="fill:#006bdf"/><path d="M139.57,34v2.64h.08a6.24,6.24,0,0,1,2.64-2.44,8.1,8.1,0,0,1,3.52-.76,9,9,0,0,1,4.2.92,8.68,8.68,0,0,1,2.92,2.44,10.32,10.32,0,0,1,1.72,3.54,15.74,15.74,0,0,1,.56,4.22,14.22,14.22,0,0,1-.56,4A10.18,10.18,0,0,1,153,52a8.42,8.42,0,0,1-2.84,2.36,8.55,8.55,0,0,1-4,.88,8.06,8.06,0,0,1-3.54-.78,6.7,6.7,0,0,1-2.66-2.3h-.08v9.8h-5.68V34ZM147,50.41a4.56,4.56,0,0,0,1.52-1.46,6,6,0,0,0,.82-2.1,12.4,12.4,0,0,0,.24-2.44,11.5,11.5,0,0,0-.26-2.44,6.5,6.5,0,0,0-.86-2.14,4.79,4.79,0,0,0-1.54-1.52,4.31,4.31,0,0,0-2.3-.58,4.38,4.38,0,0,0-2.34.58,4.66,4.66,0,0,0-1.52,1.5,6.22,6.22,0,0,0-.82,2.12,12.64,12.64,0,0,0-.24,2.48,11.46,11.46,0,0,0,.26,2.44,6.29,6.29,0,0,0,.84,2.1,4.85,4.85,0,0,0,6.2,1.46Z" style="fill:#006bdf"/><path d="M164,34v3.84h.08a7,7,0,0,1,1.08-1.78,7.09,7.09,0,0,1,1.56-1.4,7.65,7.65,0,0,1,1.88-.9,6.78,6.78,0,0,1,2.08-.32,4.43,4.43,0,0,1,1.24.2v5.28q-.4-.08-1-.14a10.15,10.15,0,0,0-1.08-.06,6.06,6.06,0,0,0-2.64.52,4.57,4.57,0,0,0-1.74,1.42,5.68,5.68,0,0,0-.94,2.1,11.41,11.41,0,0,0-.28,2.6v9.32h-5.68V34Z" style="fill:#006bdf"/><path d="M174.33,30.81V26.13H180v4.68ZM180,34V54.69h-5.68V34Z" style="fill:#006bdf"/><path d="M189.27,49.55a3.32,3.32,0,0,0,1,1.08,4.19,4.19,0,0,0,1.38.62,6.48,6.48,0,0,0,1.62.2,6,6,0,0,0,1.26-.14,4.29,4.29,0,0,0,1.2-.44,2.72,2.72,0,0,0,.9-.8,2.1,2.1,0,0,0,.36-1.26q0-1.28-1.7-1.92a34.05,34.05,0,0,0-4.74-1.28q-1.24-.28-2.42-.66a8.22,8.22,0,0,1-2.1-1,4.85,4.85,0,0,1-1.48-1.56,4.41,4.41,0,0,1-.56-2.3,6.22,6.22,0,0,1,.78-3.28,5.75,5.75,0,0,1,2.06-2,9,9,0,0,1,2.88-1,17.74,17.74,0,0,1,3.28-.3,16.38,16.38,0,0,1,3.26.32,8.65,8.65,0,0,1,2.82,1.08,6.48,6.48,0,0,1,2.06,2,6.78,6.78,0,0,1,1,3.18h-5.4a2.49,2.49,0,0,0-1.24-2.22,5.68,5.68,0,0,0-2.64-.58,9.79,9.79,0,0,0-1,.06,3.48,3.48,0,0,0-1,.26,2.11,2.11,0,0,0-.78.58,1.53,1.53,0,0,0-.32,1,1.56,1.56,0,0,0,.56,1.24,4.32,4.32,0,0,0,1.46.78,18.24,18.24,0,0,0,2.06.54q1.16.24,2.36.52a24.15,24.15,0,0,1,2.42.68,8,8,0,0,1,2.1,1.06,5.14,5.14,0,0,1,1.48,1.64,4.81,4.81,0,0,1,.56,2.42,6.28,6.28,0,0,1-3,5.64,8.77,8.77,0,0,1-3,1.18,17.65,17.65,0,0,1-3.46.34,17.15,17.15,0,0,1-3.52-.36,9.29,9.29,0,0,1-3.06-1.2,6.86,6.86,0,0,1-2.2-2.22,6.94,6.94,0,0,1-.94-3.46h5.4A3.11,3.11,0,0,0,189.27,49.55Z" style="fill:#006bdf"/><path d="M212,49.73a5.82,5.82,0,0,0,6.64.38,3.57,3.57,0,0,0,1.52-1.82h5a9.49,9.49,0,0,1-3.68,5.32,10.83,10.83,0,0,1-6,1.6,11.82,11.82,0,0,1-4.4-.78,9.15,9.15,0,0,1-3.32-2.22,10,10,0,0,1-2.1-3.44,12.58,12.58,0,0,1-.74-4.4,12.06,12.06,0,0,1,.76-4.32,10,10,0,0,1,5.5-5.76,10.71,10.71,0,0,1,4.3-.84,9.84,9.84,0,0,1,4.6,1,9.18,9.18,0,0,1,3.22,2.74,11.27,11.27,0,0,1,1.82,3.92,14.62,14.62,0,0,1,.4,4.6H210.65A5.74,5.74,0,0,0,212,49.73Zm6.42-10.88a4,4,0,0,0-3.1-1.12,5,5,0,0,0-2.26.46,4.31,4.31,0,0,0-1.44,1.14,4.17,4.17,0,0,0-.76,1.44,6.48,6.48,0,0,0-.26,1.36h9.24A6.57,6.57,0,0,0,218.47,38.85Z" style="fill:#006bdf"/><path d="M245.45,47.65a4.53,4.53,0,0,0,1.38,1.62,6,6,0,0,0,2,.92,9.53,9.53,0,0,0,2.4.3,12.45,12.45,0,0,0,1.8-.14,6.27,6.27,0,0,0,1.8-.54,3.93,3.93,0,0,0,1.4-1.1,2.76,2.76,0,0,0,.56-1.78,2.51,2.51,0,0,0-.74-1.88,5.88,5.88,0,0,0-1.94-1.2,19.37,19.37,0,0,0-2.72-.84q-1.52-.36-3.08-.8a27.21,27.21,0,0,1-3.12-1,10.68,10.68,0,0,1-2.72-1.5,7.06,7.06,0,0,1-1.94-2.3,7,7,0,0,1-.74-3.34,7.48,7.48,0,0,1,.94-3.82,8.51,8.51,0,0,1,2.46-2.7,10.74,10.74,0,0,1,3.44-1.6,14.66,14.66,0,0,1,3.84-.52,18.19,18.19,0,0,1,4.3.5,10.75,10.75,0,0,1,3.66,1.62A8.2,8.2,0,0,1,261,30.43a8.78,8.78,0,0,1,.94,4.22h-6.08a5.07,5.07,0,0,0-.54-2.12,3.54,3.54,0,0,0-1.22-1.32,5.17,5.17,0,0,0-1.74-.68,10.75,10.75,0,0,0-2.14-.2,7.41,7.41,0,0,0-1.52.16,4.08,4.08,0,0,0-1.38.56,3.47,3.47,0,0,0-1,1,2.69,2.69,0,0,0-.4,1.52,2.57,2.57,0,0,0,.32,1.36,2.86,2.86,0,0,0,1.26,1,16,16,0,0,0,2.6.88l4.34,1.12q.8.16,2.22.58a10.67,10.67,0,0,1,2.82,1.34,8.53,8.53,0,0,1,2.42,2.46,7,7,0,0,1,1,3.94,8.74,8.74,0,0,1-.76,3.64,7.92,7.92,0,0,1-2.26,2.9,10.86,10.86,0,0,1-3.72,1.9,17.59,17.59,0,0,1-5.14.68,18.06,18.06,0,0,1-4.58-.58,11.51,11.51,0,0,1-3.92-1.82,9,9,0,0,1-2.7-3.16,9.43,9.43,0,0,1-1-4.56h6.08A5.23,5.23,0,0,0,245.45,47.65Z" style="fill:#006bdf"/><path d="M280,54.69V51.81h-.12a6.4,6.4,0,0,1-2.8,2.6,8.28,8.28,0,0,1-3.52.8,9.94,9.94,0,0,1-3.74-.6,5.39,5.39,0,0,1-2.3-1.7,6.65,6.65,0,0,1-1.18-2.68,16.64,16.64,0,0,1-.34-3.5V34h5.68V45.69a7.24,7.24,0,0,0,.8,3.82,3.1,3.1,0,0,0,2.84,1.26,3.94,3.94,0,0,0,3.36-1.38,7.67,7.67,0,0,0,1-4.54V34h5.68V54.69Z" style="fill:#006bdf"/><path d="M295.13,34v2.64h.08a6.24,6.24,0,0,1,2.64-2.44,8.1,8.1,0,0,1,3.52-.76,9,9,0,0,1,4.2.92,8.68,8.68,0,0,1,2.92,2.44,10.32,10.32,0,0,1,1.72,3.54,15.74,15.74,0,0,1,.56,4.22,14.22,14.22,0,0,1-.56,4,10.18,10.18,0,0,1-1.7,3.4,8.42,8.42,0,0,1-2.84,2.36,8.55,8.55,0,0,1-4,.88,8.06,8.06,0,0,1-3.54-.78,6.7,6.7,0,0,1-2.66-2.3h-.08v9.8h-5.68V34Zm7.38,16.4A4.56,4.56,0,0,0,304,48.95a6,6,0,0,0,.82-2.1,12.4,12.4,0,0,0,.24-2.44,11.5,11.5,0,0,0-.26-2.44,6.5,6.5,0,0,0-.86-2.14,4.79,4.79,0,0,0-1.54-1.52,4.31,4.31,0,0,0-2.3-.58,4.38,4.38,0,0,0-2.34.58,4.66,4.66,0,0,0-1.52,1.5,6.22,6.22,0,0,0-.82,2.12,12.64,12.64,0,0,0-.24,2.48,11.46,11.46,0,0,0,.26,2.44,6.29,6.29,0,0,0,.84,2.1,4.85,4.85,0,0,0,6.2,1.46Z" style="fill:#006bdf"/><path d="M319.57,34v2.64h.08a6.24,6.24,0,0,1,2.64-2.44,8.1,8.1,0,0,1,3.52-.76,9,9,0,0,1,4.2.92,8.68,8.68,0,0,1,2.92,2.44,10.32,10.32,0,0,1,1.72,3.54,15.74,15.74,0,0,1,.56,4.22,14.22,14.22,0,0,1-.56,4,10.18,10.18,0,0,1-1.7,3.4,8.42,8.42,0,0,1-2.84,2.36,8.55,8.55,0,0,1-4,.88,8.06,8.06,0,0,1-3.54-.78,6.7,6.7,0,0,1-2.66-2.3h-.08v9.8h-5.68V34Zm7.38,16.4a4.56,4.56,0,0,0,1.52-1.46,6,6,0,0,0,.82-2.1,12.4,12.4,0,0,0,.24-2.44,11.5,11.5,0,0,0-.26-2.44,6.5,6.5,0,0,0-.86-2.14,4.79,4.79,0,0,0-1.54-1.52,4.31,4.31,0,0,0-2.3-.58,4.38,4.38,0,0,0-2.34.58,4.66,4.66,0,0,0-1.52,1.5,6.22,6.22,0,0,0-.82,2.12,12.64,12.64,0,0,0-.24,2.48,11.46,11.46,0,0,0,.26,2.44,6.29,6.29,0,0,0,.84,2.1,4.85,4.85,0,0,0,6.2,1.46Z" style="fill:#006bdf"/><path d="M338.73,39.87a9.46,9.46,0,0,1,5.52-5.64,11.81,11.81,0,0,1,4.4-.78,12,12,0,0,1,4.42.78,9.42,9.42,0,0,1,5.54,5.64,12.71,12.71,0,0,1,.76,4.5,12.55,12.55,0,0,1-.76,4.48,9.72,9.72,0,0,1-2.16,3.42,9.4,9.4,0,0,1-3.38,2.18,12.26,12.26,0,0,1-4.42.76,12.1,12.1,0,0,1-4.4-.76,9.43,9.43,0,0,1-3.36-2.18,9.71,9.71,0,0,1-2.16-3.42,12.53,12.53,0,0,1-.76-4.48A12.69,12.69,0,0,1,338.73,39.87Zm5.16,6.92a6.45,6.45,0,0,0,.82,2.12,4.37,4.37,0,0,0,1.54,1.5,4.7,4.7,0,0,0,2.4.56,4.81,4.81,0,0,0,2.42-.56,4.33,4.33,0,0,0,1.56-1.5,6.46,6.46,0,0,0,.82-2.12,12.1,12.1,0,0,0,.24-2.42,12.4,12.4,0,0,0-.24-2.44,6.24,6.24,0,0,0-.82-2.12,4.56,4.56,0,0,0-1.56-1.5,4.68,4.68,0,0,0-2.42-.58,4.37,4.37,0,0,0-3.94,2.08,6.23,6.23,0,0,0-.82,2.12,12.4,12.4,0,0,0-.24,2.44A12.1,12.1,0,0,0,343.89,46.79Z" style="fill:#006bdf"/><path d="M368.45,34v3.84h.08a7,7,0,0,1,1.08-1.78,7.09,7.09,0,0,1,1.56-1.4,7.65,7.65,0,0,1,1.88-.9,6.78,6.78,0,0,1,2.08-.32,4.43,4.43,0,0,1,1.24.2v5.28q-.4-.08-1-.14a10.15,10.15,0,0,0-1.08-.06,6.06,6.06,0,0,0-2.64.52,4.57,4.57,0,0,0-1.74,1.42,5.68,5.68,0,0,0-.94,2.1,11.41,11.41,0,0,0-.28,2.6v9.32H363V34Z" style="fill:#006bdf"/><path d="M390,34v3.8h-4.16V48a2.78,2.78,0,0,0,.48,1.92,2.78,2.78,0,0,0,1.92.48c.32,0,.63,0,.92,0a7.81,7.81,0,0,0,.84-.12v4.4a13.54,13.54,0,0,1-1.6.16q-.88,0-1.72,0a16.56,16.56,0,0,1-2.5-.18,5.89,5.89,0,0,1-2.08-.7,3.7,3.7,0,0,1-1.42-1.48,5.28,5.28,0,0,1-.52-2.52V37.81h-3.44V34h3.44v-6.2h5.68V34Z" style="fill:#006bdf"/><path d="M31.32,73A9.2,9.2,0,0,1,33,69.85a8.19,8.19,0,0,1,2.78-2.16,9.72,9.72,0,0,1,7.75,0,8.2,8.2,0,0,1,2.78,2.16A9.22,9.22,0,0,1,48,73a12.21,12.21,0,0,1,0,7.31,9.21,9.21,0,0,1-1.68,3.11,8.05,8.05,0,0,1-2.78,2.15,9.86,9.86,0,0,1-7.75,0A8,8,0,0,1,33,83.37a9.2,9.2,0,0,1-1.68-3.11,12.21,12.21,0,0,1,0-7.31Zm2.27,6.42a7.52,7.52,0,0,0,1.14,2.46,5.85,5.85,0,0,0,2,1.76,6.73,6.73,0,0,0,5.82,0,5.86,5.86,0,0,0,2-1.76,7.53,7.53,0,0,0,1.14-2.46,10.72,10.72,0,0,0,0-5.54,7.53,7.53,0,0,0-1.14-2.46,5.86,5.86,0,0,0-2-1.76,6.73,6.73,0,0,0-5.82,0,5.85,5.85,0,0,0-2,1.76,7.52,7.52,0,0,0-1.14,2.46,10.72,10.72,0,0,0,0,5.54Z" style="fill:#4b4b4c"/><path d="M53.28,72.45v2.13h.05a4.65,4.65,0,0,1,4.37-2.44,5.84,5.84,0,0,1,2.21.36,3.65,3.65,0,0,1,1.43,1,3.77,3.77,0,0,1,.77,1.55,8.31,8.31,0,0,1,.22,2v8.84H60.11v-9.1a2.67,2.67,0,0,0-.73-2,2.71,2.71,0,0,0-2-.73,4.5,4.5,0,0,0-1.75.31,3.29,3.29,0,0,0-1.24.88,3.81,3.81,0,0,0-.74,1.34,5.44,5.44,0,0,0-.25,1.68v7.59H51.2V72.45Z" style="fill:#4b4b4c"/><path d="M75.17,85a6.1,6.1,0,0,1-3.8,1.14,6.91,6.91,0,0,1-2.79-.52,5.51,5.51,0,0,1-2-1.46A6.18,6.18,0,0,1,65.38,82a10.76,10.76,0,0,1-.46-2.83,8.09,8.09,0,0,1,.47-2.81,6.71,6.71,0,0,1,1.31-2.21,6,6,0,0,1,2-1.46,6.11,6.11,0,0,1,2.53-.52,5.52,5.52,0,0,1,3,.74,5.89,5.89,0,0,1,1.9,1.89,7.46,7.46,0,0,1,1,2.5,10.72,10.72,0,0,1,.22,2.57H67.26a5.34,5.34,0,0,0,.21,1.68,3.8,3.8,0,0,0,.75,1.4,3.71,3.71,0,0,0,1.33,1,4.58,4.58,0,0,0,1.9.36,3.82,3.82,0,0,0,2.3-.65,3.14,3.14,0,0,0,1.18-2h2.18A5.37,5.37,0,0,1,75.17,85Zm-.53-8.63a3.79,3.79,0,0,0-.81-1.21,3.83,3.83,0,0,0-1.2-.81,3.78,3.78,0,0,0-1.52-.3,3.85,3.85,0,0,0-1.55.3,3.57,3.57,0,0,0-1.18.82,3.93,3.93,0,0,0-.78,1.21,4.6,4.6,0,0,0-.34,1.47H75A4.54,4.54,0,0,0,74.64,76.4Z" style="fill:#4b4b4c"/><path d="M92.12,87.68a14,14,0,0,1-.77,1.66,4.56,4.56,0,0,1-.83,1.1,2.82,2.82,0,0,1-1,.62,3.91,3.91,0,0,1-1.29.19,5.89,5.89,0,0,1-.78-.05,3.73,3.73,0,0,1-.75-.18V89a3.73,3.73,0,0,0,.66.22,2.8,2.8,0,0,0,.64.09A1.9,1.9,0,0,0,89.12,89a2,2,0,0,0,.69-.92l.91-2.26L85.39,72.45h2.5l3.93,11h.05l3.77-11H98Z" style="fill:#4b4b4c"/><path d="M109.36,85a6.1,6.1,0,0,1-3.8,1.14,6.91,6.91,0,0,1-2.79-.52,5.51,5.51,0,0,1-2-1.46A6.18,6.18,0,0,1,99.57,82a10.76,10.76,0,0,1-.46-2.83,8.09,8.09,0,0,1,.47-2.81,6.71,6.71,0,0,1,1.31-2.21,6,6,0,0,1,2-1.46,6.11,6.11,0,0,1,2.53-.52,5.52,5.52,0,0,1,3,.74,5.89,5.89,0,0,1,1.9,1.89,7.46,7.46,0,0,1,1,2.5,10.72,10.72,0,0,1,.22,2.57H101.45a5.34,5.34,0,0,0,.21,1.68,3.8,3.8,0,0,0,.75,1.4,3.71,3.71,0,0,0,1.33,1,4.58,4.58,0,0,0,1.9.36,3.82,3.82,0,0,0,2.3-.65,3.14,3.14,0,0,0,1.18-2h2.18A5.37,5.37,0,0,1,109.36,85Zm-.53-8.63a3.79,3.79,0,0,0-.81-1.21,3.83,3.83,0,0,0-1.2-.81,3.78,3.78,0,0,0-1.52-.3,3.85,3.85,0,0,0-1.55.3,3.57,3.57,0,0,0-1.18.82,3.93,3.93,0,0,0-.78,1.21,4.6,4.6,0,0,0-.34,1.47h7.72A4.54,4.54,0,0,0,108.83,76.4Z" style="fill:#4b4b4c"/><path d="M125.71,85.84a3.13,3.13,0,0,1-1.59.34,1.9,1.9,0,0,1-1.36-.48,2.09,2.09,0,0,1-.51-1.57,5.29,5.29,0,0,1-2.12,1.57,7.32,7.32,0,0,1-4.34.27,4,4,0,0,1-1.42-.65,3.12,3.12,0,0,1-.95-1.16,3.89,3.89,0,0,1-.35-1.73,4,4,0,0,1,.39-1.87,3.41,3.41,0,0,1,1-1.18,4.72,4.72,0,0,1,1.46-.69q.82-.23,1.68-.39t1.73-.27a9.54,9.54,0,0,0,1.44-.26,2.39,2.39,0,0,0,1-.49,1.2,1.2,0,0,0,.36-.95,2.2,2.2,0,0,0-.27-1.17,1.87,1.87,0,0,0-.7-.68,2.87,2.87,0,0,0-1-.31,7.3,7.3,0,0,0-1.05-.08,4.68,4.68,0,0,0-2.34.53,2.26,2.26,0,0,0-1,2H113.6a4.77,4.77,0,0,1,.52-2.11,3.94,3.94,0,0,1,1.25-1.39,5.25,5.25,0,0,1,1.78-.77,9.42,9.42,0,0,1,2.15-.23,12.62,12.62,0,0,1,1.81.13,4.73,4.73,0,0,1,1.63.53,3.12,3.12,0,0,1,1.17,1.13,3.61,3.61,0,0,1,.44,1.89v6.9a5.12,5.12,0,0,0,.09,1.14q.09.36.61.36a2.68,2.68,0,0,0,.68-.1Zm-3.59-6.89a2.75,2.75,0,0,1-1.09.45q-.68.14-1.42.23l-1.5.21a5.52,5.52,0,0,0-1.35.37,2.46,2.46,0,0,0-1,.74,2.06,2.06,0,0,0-.38,1.31,1.78,1.78,0,0,0,.22.92,1.83,1.83,0,0,0,.57.61,2.42,2.42,0,0,0,.82.34,4.57,4.57,0,0,0,1,.1,5.26,5.26,0,0,0,1.87-.3,3.93,3.93,0,0,0,1.27-.75,3,3,0,0,0,.73-1,2.48,2.48,0,0,0,.23-1Z" style="fill:#4b4b4c"/><path d="M129.77,72.45v2.83h.05a6,6,0,0,1,2-2.42,5,5,0,0,1,3-.73v2.34a6.25,6.25,0,0,0-2.26.36A3.56,3.56,0,0,0,131,75.9a4.39,4.39,0,0,0-.83,1.7,9.16,9.16,0,0,0-.26,2.3v6h-2.21V72.45Z" style="fill:#4b4b4c"/><path d="M143.34,76.41a6.26,6.26,0,0,1,1.25-2.24,5.87,5.87,0,0,1,2.05-1.5,7.53,7.53,0,0,1,5.63,0,5.91,5.91,0,0,1,2,1.5,6.28,6.28,0,0,1,1.25,2.24,9,9,0,0,1,.42,2.77,8.83,8.83,0,0,1-.42,2.76,6.29,6.29,0,0,1-1.25,2.22,5.77,5.77,0,0,1-2,1.48,7.7,7.7,0,0,1-5.63,0,5.73,5.73,0,0,1-2.05-1.48,6.27,6.27,0,0,1-1.25-2.22,8.83,8.83,0,0,1-.42-2.76A9,9,0,0,1,143.34,76.41Zm2.25,4.94a4.53,4.53,0,0,0,.9,1.59,3.88,3.88,0,0,0,1.34,1,4.08,4.08,0,0,0,3.25,0,3.88,3.88,0,0,0,1.34-1,4.55,4.55,0,0,0,.9-1.59,7.42,7.42,0,0,0,0-4.34,4.7,4.7,0,0,0-.9-1.6,3.82,3.82,0,0,0-1.34-1,4.07,4.07,0,0,0-3.25,0,3.82,3.82,0,0,0-1.34,1,4.68,4.68,0,0,0-.9,1.6,7.41,7.41,0,0,0,0,4.34Z" style="fill:#4b4b4c"/><path d="M157.22,74.4V72.45h2.26v-2a3.15,3.15,0,0,1,.95-2.48,4,4,0,0,1,2.77-.85,5.74,5.74,0,0,1,.71.05,3.86,3.86,0,0,1,.72.16v1.92a2.79,2.79,0,0,0-.62-.14,5.5,5.5,0,0,0-.62,0,2.14,2.14,0,0,0-1.25.31,1.38,1.38,0,0,0-.44,1.2v1.87h2.6V74.4h-2.6V85.89h-2.21V74.4Z" style="fill:#4b4b4c"/><path d="M175.79,72.45v1.82h.05a3.31,3.31,0,0,1,1.72-1.62,6.4,6.4,0,0,1,2.57-.51,6.07,6.07,0,0,1,2.72.57,5.53,5.53,0,0,1,1.92,1.55,6.83,6.83,0,0,1,1.16,2.25,9.18,9.18,0,0,1,.39,2.7,9.49,9.49,0,0,1-.38,2.7,6.37,6.37,0,0,1-1.14,2.22,5.4,5.4,0,0,1-1.92,1.5,6.25,6.25,0,0,1-2.69.55,6.69,6.69,0,0,1-1.1-.1,6.18,6.18,0,0,1-1.21-.34,4.71,4.71,0,0,1-1.13-.64,3.55,3.55,0,0,1-.9-1h-.05V91h-2.21V72.45Zm7.94,4.77a5,5,0,0,0-.75-1.6,3.7,3.7,0,0,0-1.3-1.12,4,4,0,0,0-1.86-.42,3.65,3.65,0,0,0-3.17,1.6,4.83,4.83,0,0,0-.71,1.63,7.87,7.87,0,0,0,0,3.76,4.73,4.73,0,0,0,.74,1.63A3.78,3.78,0,0,0,178,83.82a4.1,4.1,0,0,0,1.95.43,3.78,3.78,0,0,0,1.91-.44,3.55,3.55,0,0,0,1.23-1.17,5.1,5.1,0,0,0,.68-1.66A8.84,8.84,0,0,0,184,79,6.88,6.88,0,0,0,183.73,77.22Z" style="fill:#4b4b4c"/><path d="M190.92,72.45v2.83H191a6,6,0,0,1,2-2.42,5,5,0,0,1,3-.73v2.34a6.25,6.25,0,0,0-2.26.36,3.56,3.56,0,0,0-1.51,1.07,4.39,4.39,0,0,0-.83,1.7,9.16,9.16,0,0,0-.26,2.3v6h-2.21V72.45Z" style="fill:#4b4b4c"/><path d="M197.7,70v-2.7h2.21V70Zm2.21,2.42V85.89H197.7V72.45Z" style="fill:#4b4b4c"/><path d="M203,76.41a6.26,6.26,0,0,1,1.25-2.24,5.87,5.87,0,0,1,2.05-1.5,7.53,7.53,0,0,1,5.63,0,5.91,5.91,0,0,1,2,1.5,6.28,6.28,0,0,1,1.25,2.24,9,9,0,0,1,.42,2.77,8.83,8.83,0,0,1-.42,2.76A6.29,6.29,0,0,1,214,84.16a5.77,5.77,0,0,1-2,1.48,7.7,7.7,0,0,1-5.63,0,5.73,5.73,0,0,1-2.05-1.48A6.27,6.27,0,0,1,203,81.94a8.83,8.83,0,0,1-.42-2.76A9,9,0,0,1,203,76.41Zm2.25,4.94a4.53,4.53,0,0,0,.9,1.59,3.88,3.88,0,0,0,1.34,1,4.08,4.08,0,0,0,3.25,0,3.88,3.88,0,0,0,1.34-1,4.55,4.55,0,0,0,.9-1.59A7.42,7.42,0,0,0,213,77a4.7,4.7,0,0,0-.9-1.6,3.82,3.82,0,0,0-1.34-1,4.07,4.07,0,0,0-3.25,0,3.82,3.82,0,0,0-1.34,1,4.68,4.68,0,0,0-.9,1.6,7.41,7.41,0,0,0,0,4.34Z" style="fill:#4b4b4c"/><path d="M220.27,72.45v2.83h.05a6,6,0,0,1,2-2.42,5,5,0,0,1,3-.73v2.34a6.25,6.25,0,0,0-2.26.36,3.56,3.56,0,0,0-1.51,1.07,4.39,4.39,0,0,0-.83,1.7,9.16,9.16,0,0,0-.26,2.3v6h-2.21V72.45Z" style="fill:#4b4b4c"/><path d="M227.06,70v-2.7h2.21V70Zm2.21,2.42V85.89h-2.21V72.45Z" style="fill:#4b4b4c"/><path d="M238.45,72.45V74.4h-2.68v8.35a2.41,2.41,0,0,0,.06.62.64.64,0,0,0,.25.36,1.09,1.09,0,0,0,.51.17,7.41,7.41,0,0,0,.85,0h1v2h-1.69a7.92,7.92,0,0,1-1.47-.12,2.15,2.15,0,0,1-1-.43,1.83,1.83,0,0,1-.56-.88,5.1,5.1,0,0,1-.18-1.51V74.4h-2.29V72.45h2.29v-4h2.21v4Z" style="fill:#4b4b4c"/><path d="M246.17,87.68a14,14,0,0,1-.77,1.66,4.56,4.56,0,0,1-.83,1.1,2.82,2.82,0,0,1-1,.62,3.91,3.91,0,0,1-1.29.19,5.89,5.89,0,0,1-.78-.05,3.73,3.73,0,0,1-.75-.18V89a3.73,3.73,0,0,0,.66.22,2.8,2.8,0,0,0,.64.09,1.9,1.9,0,0,0,1.13-.33,2,2,0,0,0,.69-.92l.91-2.26-5.33-13.36h2.5l3.93,11h.05l3.77-11H252Z" style="fill:#4b4b4c"/><path d="M270.63,85a6.1,6.1,0,0,1-3.8,1.14,6.91,6.91,0,0,1-2.79-.52,5.51,5.51,0,0,1-2-1.46A6.18,6.18,0,0,1,260.84,82a10.76,10.76,0,0,1-.46-2.83,8.09,8.09,0,0,1,.47-2.81,6.71,6.71,0,0,1,1.31-2.21,6,6,0,0,1,2-1.46,6.11,6.11,0,0,1,2.53-.52,5.52,5.52,0,0,1,3,.74,5.89,5.89,0,0,1,1.9,1.89,7.46,7.46,0,0,1,1,2.5,10.72,10.72,0,0,1,.22,2.57H262.73a5.34,5.34,0,0,0,.21,1.68,3.8,3.8,0,0,0,.75,1.4,3.71,3.71,0,0,0,1.33,1,4.58,4.58,0,0,0,1.9.36,3.82,3.82,0,0,0,2.3-.65,3.14,3.14,0,0,0,1.18-2h2.18A5.37,5.37,0,0,1,270.63,85Zm-.53-8.63a3.79,3.79,0,0,0-.81-1.21,3.83,3.83,0,0,0-1.2-.81,3.78,3.78,0,0,0-1.52-.3,3.85,3.85,0,0,0-1.55.3,3.57,3.57,0,0,0-1.18.82,3.93,3.93,0,0,0-.78,1.21,4.6,4.6,0,0,0-.34,1.47h7.72A4.54,4.54,0,0,0,270.1,76.4Z" style="fill:#4b4b4c"/><path d="M277.16,72.45v2h.05a5.24,5.24,0,0,1,6.6-1.77,2.91,2.91,0,0,1,1.43,1.77A4.69,4.69,0,0,1,287,72.73a5,5,0,0,1,2.43-.6,7.05,7.05,0,0,1,1.83.22,3.81,3.81,0,0,1,1.4.69,3.12,3.12,0,0,1,.91,1.21,4.41,4.41,0,0,1,.33,1.78v9.85h-2.21V77.07a6.29,6.29,0,0,0-.1-1.17,2.4,2.4,0,0,0-.39-.95,2,2,0,0,0-.79-.64,3.15,3.15,0,0,0-1.31-.23,3.48,3.48,0,0,0-2.57.94,3.37,3.37,0,0,0-.94,2.5v8.37H283.4V77.07a5.74,5.74,0,0,0-.12-1.2,2.55,2.55,0,0,0-.4-.95,1.89,1.89,0,0,0-.77-.62,3,3,0,0,0-1.23-.22,3.3,3.3,0,0,0-1.65.39,3.74,3.74,0,0,0-1.74,2.07,3.21,3.21,0,0,0-.19,1v8.37h-2.21V72.45Z" style="fill:#4b4b4c"/><path d="M309.16,85.84a3.13,3.13,0,0,1-1.59.34,1.9,1.9,0,0,1-1.36-.48,2.09,2.09,0,0,1-.51-1.57,5.29,5.29,0,0,1-2.12,1.57,7.32,7.32,0,0,1-4.34.27,4,4,0,0,1-1.42-.65,3.12,3.12,0,0,1-.95-1.16,3.89,3.89,0,0,1-.35-1.73,4,4,0,0,1,.39-1.87,3.41,3.41,0,0,1,1-1.18,4.72,4.72,0,0,1,1.46-.69q.82-.23,1.68-.39t1.73-.27a9.54,9.54,0,0,0,1.44-.26,2.39,2.39,0,0,0,1-.49,1.2,1.2,0,0,0,.36-.95,2.2,2.2,0,0,0-.27-1.17,1.87,1.87,0,0,0-.7-.68,2.87,2.87,0,0,0-1-.31,7.3,7.3,0,0,0-1.05-.08,4.68,4.68,0,0,0-2.34.53,2.26,2.26,0,0,0-1,2H297a4.77,4.77,0,0,1,.52-2.11,3.94,3.94,0,0,1,1.25-1.39,5.25,5.25,0,0,1,1.78-.77,9.42,9.42,0,0,1,2.15-.23,12.62,12.62,0,0,1,1.81.13,4.73,4.73,0,0,1,1.63.53,3.12,3.12,0,0,1,1.17,1.13,3.61,3.61,0,0,1,.44,1.89v6.9a5.12,5.12,0,0,0,.09,1.14q.09.36.61.36a2.68,2.68,0,0,0,.68-.1Zm-3.59-6.89a2.75,2.75,0,0,1-1.09.45q-.68.14-1.42.23l-1.5.21a5.52,5.52,0,0,0-1.35.37,2.46,2.46,0,0,0-1,.74,2.06,2.06,0,0,0-.38,1.31,1.78,1.78,0,0,0,.22.92,1.83,1.83,0,0,0,.57.61,2.42,2.42,0,0,0,.82.34,4.57,4.57,0,0,0,1,.1,5.26,5.26,0,0,0,1.87-.3,3.93,3.93,0,0,0,1.27-.75,3,3,0,0,0,.73-1,2.48,2.48,0,0,0,.23-1Z" style="fill:#4b4b4c"/><path d="M311.35,70v-2.7h2.21V70Zm2.21,2.42V85.89h-2.21V72.45Z" style="fill:#4b4b4c"/><path d="M319.33,67.32V85.89h-2.21V67.32Z" style="fill:#4b4b4c"/><path d="M326.14,83v2.63a4.66,4.66,0,0,1-.68,2.55,3.69,3.69,0,0,1-2.18,1.51v-1.3a2,2,0,0,0,.74-.46,2.64,2.64,0,0,0,.48-.65,2.52,2.52,0,0,0,.25-.72,2.62,2.62,0,0,0,0-.68h-1.53V83Z" style="fill:#4b4b4c"/><path d="M339.51,72.45v1.82h.05a3.31,3.31,0,0,1,1.72-1.62,6.4,6.4,0,0,1,2.57-.51,6.07,6.07,0,0,1,2.72.57,5.53,5.53,0,0,1,1.92,1.55,6.83,6.83,0,0,1,1.16,2.25,9.18,9.18,0,0,1,.39,2.7,9.49,9.49,0,0,1-.38,2.7,6.37,6.37,0,0,1-1.14,2.22,5.4,5.4,0,0,1-1.92,1.5,6.25,6.25,0,0,1-2.69.55,6.69,6.69,0,0,1-1.1-.1,6.18,6.18,0,0,1-1.21-.34,4.71,4.71,0,0,1-1.13-.64,3.55,3.55,0,0,1-.9-1h-.05V91H337.3V72.45Zm7.94,4.77a5,5,0,0,0-.75-1.6,3.7,3.7,0,0,0-1.3-1.12,4,4,0,0,0-1.86-.42,3.65,3.65,0,0,0-3.17,1.6,4.83,4.83,0,0,0-.71,1.63,7.87,7.87,0,0,0,0,3.76,4.73,4.73,0,0,0,.74,1.63,3.78,3.78,0,0,0,1.31,1.13,4.1,4.1,0,0,0,1.95.43,3.78,3.78,0,0,0,1.91-.44,3.55,3.55,0,0,0,1.23-1.17,5.1,5.1,0,0,0,.68-1.66A8.84,8.84,0,0,0,347.7,79,6.88,6.88,0,0,0,347.45,77.22Z" style="fill:#4b4b4c"/><path d="M354.85,67.32v7.1h.05a2.94,2.94,0,0,1,.73-1.05,4.14,4.14,0,0,1,1.05-.7,5.49,5.49,0,0,1,1.22-.4,6.18,6.18,0,0,1,1.23-.13,5.84,5.84,0,0,1,2.21.36,3.65,3.65,0,0,1,1.43,1,3.77,3.77,0,0,1,.77,1.55,8.31,8.31,0,0,1,.22,2v8.84h-2.21v-9.1a2.67,2.67,0,0,0-.73-2,2.71,2.71,0,0,0-2-.73,4.5,4.5,0,0,0-1.75.31,3.29,3.29,0,0,0-1.24.88,3.81,3.81,0,0,0-.74,1.34,5.44,5.44,0,0,0-.25,1.68v7.59h-2.21V67.32Z" style="fill:#4b4b4c"/><path d="M366.78,76.41A6.26,6.26,0,0,1,368,74.17a5.87,5.87,0,0,1,2.05-1.5,7.53,7.53,0,0,1,5.63,0,5.91,5.91,0,0,1,2,1.5A6.28,6.28,0,0,1,379,76.41a9,9,0,0,1,.42,2.77,8.83,8.83,0,0,1-.42,2.76,6.29,6.29,0,0,1-1.25,2.22,5.77,5.77,0,0,1-2,1.48,7.7,7.7,0,0,1-5.63,0A5.73,5.73,0,0,1,368,84.16a6.27,6.27,0,0,1-1.25-2.22,8.83,8.83,0,0,1-.42-2.76A9,9,0,0,1,366.78,76.41ZM369,81.35a4.53,4.53,0,0,0,.9,1.59,3.88,3.88,0,0,0,1.34,1,4.08,4.08,0,0,0,3.25,0,3.88,3.88,0,0,0,1.34-1,4.55,4.55,0,0,0,.9-1.59,7.42,7.42,0,0,0,0-4.34,4.7,4.7,0,0,0-.9-1.6,3.82,3.82,0,0,0-1.34-1,4.07,4.07,0,0,0-3.25,0,3.82,3.82,0,0,0-1.34,1A4.68,4.68,0,0,0,369,77a7.41,7.41,0,0,0,0,4.34Z" style="fill:#4b4b4c"/><path d="M384.09,72.45v2.13h.05a4.65,4.65,0,0,1,4.37-2.44,5.84,5.84,0,0,1,2.21.36,3.65,3.65,0,0,1,1.43,1,3.77,3.77,0,0,1,.77,1.55,8.31,8.31,0,0,1,.22,2v8.84h-2.21v-9.1a2.67,2.67,0,0,0-.73-2,2.71,2.71,0,0,0-2-.73,4.5,4.5,0,0,0-1.75.31,3.29,3.29,0,0,0-1.24.88,3.81,3.81,0,0,0-.74,1.34,5.44,5.44,0,0,0-.25,1.68v7.59H382V72.45Z" style="fill:#4b4b4c"/><path d="M406,85a6.1,6.1,0,0,1-3.8,1.14,6.91,6.91,0,0,1-2.79-.52,5.51,5.51,0,0,1-2-1.46A6.18,6.18,0,0,1,396.2,82a10.76,10.76,0,0,1-.46-2.83,8.09,8.09,0,0,1,.47-2.81,6.71,6.71,0,0,1,1.31-2.21,6,6,0,0,1,2-1.46,6.11,6.11,0,0,1,2.53-.52,5.52,5.52,0,0,1,3,.74,5.89,5.89,0,0,1,1.9,1.89,7.46,7.46,0,0,1,1,2.5,10.72,10.72,0,0,1,.22,2.57H398.08a5.34,5.34,0,0,0,.21,1.68,3.8,3.8,0,0,0,.75,1.4,3.71,3.71,0,0,0,1.33,1,4.58,4.58,0,0,0,1.9.36,3.82,3.82,0,0,0,2.3-.65,3.14,3.14,0,0,0,1.18-2h2.18A5.37,5.37,0,0,1,406,85Zm-.53-8.63a3.79,3.79,0,0,0-.81-1.21,3.83,3.83,0,0,0-1.2-.81,3.78,3.78,0,0,0-1.52-.3,3.85,3.85,0,0,0-1.55.3,3.57,3.57,0,0,0-1.18.82,3.93,3.93,0,0,0-.78,1.21,4.6,4.6,0,0,0-.34,1.47h7.72A4.54,4.54,0,0,0,405.45,76.4Z" style="fill:#4b4b4c"/><path d="M429.57,85.84a3.13,3.13,0,0,1-1.59.34,1.9,1.9,0,0,1-1.36-.48,2.09,2.09,0,0,1-.51-1.57A5.29,5.29,0,0,1,424,85.69a7.32,7.32,0,0,1-4.34.27,4,4,0,0,1-1.42-.65,3.12,3.12,0,0,1-.95-1.16,3.89,3.89,0,0,1-.35-1.73,4,4,0,0,1,.39-1.87,3.41,3.41,0,0,1,1-1.18,4.72,4.72,0,0,1,1.46-.69q.82-.23,1.68-.39t1.73-.27a9.54,9.54,0,0,0,1.44-.26,2.39,2.39,0,0,0,1-.49,1.2,1.2,0,0,0,.36-.95,2.2,2.2,0,0,0-.27-1.17,1.87,1.87,0,0,0-.7-.68,2.87,2.87,0,0,0-1-.31,7.3,7.3,0,0,0-1.05-.08,4.68,4.68,0,0,0-2.34.53,2.26,2.26,0,0,0-1,2h-2.21a4.77,4.77,0,0,1,.52-2.11,3.94,3.94,0,0,1,1.25-1.39,5.25,5.25,0,0,1,1.78-.77,9.42,9.42,0,0,1,2.15-.23,12.62,12.62,0,0,1,1.81.13,4.73,4.73,0,0,1,1.63.53,3.12,3.12,0,0,1,1.17,1.13,3.61,3.61,0,0,1,.44,1.89v6.9a5.12,5.12,0,0,0,.09,1.14q.09.36.61.36a2.68,2.68,0,0,0,.68-.1ZM426,78.95a2.75,2.75,0,0,1-1.09.45q-.68.14-1.42.23l-1.5.21a5.52,5.52,0,0,0-1.35.37,2.46,2.46,0,0,0-1,.74,2.06,2.06,0,0,0-.38,1.31,1.78,1.78,0,0,0,.22.92,1.83,1.83,0,0,0,.57.61,2.42,2.42,0,0,0,.82.34,4.57,4.57,0,0,0,1,.1,5.26,5.26,0,0,0,1.87-.3,3.93,3.93,0,0,0,1.27-.75,3,3,0,0,0,.73-1,2.48,2.48,0,0,0,.23-1Z" style="fill:#4b4b4c"/><path d="M433.7,72.45v2.13h.05a4.65,4.65,0,0,1,4.37-2.44,5.84,5.84,0,0,1,2.21.36,3.65,3.65,0,0,1,1.43,1,3.77,3.77,0,0,1,.77,1.55,8.31,8.31,0,0,1,.22,2v8.84h-2.21v-9.1a2.67,2.67,0,0,0-.73-2,2.71,2.71,0,0,0-2-.73,4.5,4.5,0,0,0-1.75.31,3.29,3.29,0,0,0-1.24.88,3.81,3.81,0,0,0-.74,1.34,5.44,5.44,0,0,0-.25,1.68v7.59h-2.21V72.45Z" style="fill:#4b4b4c"/><path d="M455.88,85.89V84.07h-.05a3.25,3.25,0,0,1-1.72,1.61,6.56,6.56,0,0,1-2.57.49,6.06,6.06,0,0,1-2.72-.57,5.59,5.59,0,0,1-1.92-1.53,6.68,6.68,0,0,1-1.16-2.24,9.18,9.18,0,0,1-.39-2.7,9.48,9.48,0,0,1,.38-2.7,6.36,6.36,0,0,1,1.14-2.22,5.52,5.52,0,0,1,1.92-1.51,6.12,6.12,0,0,1,2.69-.56,6.55,6.55,0,0,1,1.12.1,5.7,5.7,0,0,1,1.2.35,5.1,5.1,0,0,1,1.13.65,3.58,3.58,0,0,1,.9,1h.05V67.32h2.21V85.89Zm-7.94-4.77a5,5,0,0,0,.75,1.6,3.69,3.69,0,0,0,1.3,1.12,3.94,3.94,0,0,0,1.86.42,3.65,3.65,0,0,0,3.17-1.6,4.85,4.85,0,0,0,.72-1.62,7.88,7.88,0,0,0,0-3.76,4.73,4.73,0,0,0-.74-1.62,3.79,3.79,0,0,0-1.31-1.13,4.1,4.1,0,0,0-1.95-.43,3.79,3.79,0,0,0-1.9.44,3.52,3.52,0,0,0-1.25,1.17,5.09,5.09,0,0,0-.68,1.66,8.84,8.84,0,0,0-.21,1.92A6.86,6.86,0,0,0,447.94,81.12Z" style="fill:#4b4b4c"/><path d="M476.76,74.79a3.36,3.36,0,0,0-2.24-.7,4.12,4.12,0,0,0-2,.44,3.57,3.57,0,0,0-1.29,1.17,4.92,4.92,0,0,0-.69,1.68,9.15,9.15,0,0,0-.21,2,7.47,7.47,0,0,0,.22,1.82,4.87,4.87,0,0,0,.69,1.57,3.48,3.48,0,0,0,1.22,1.1,4.18,4.18,0,0,0,4.35-.44A3.88,3.88,0,0,0,478,81h2.26a6.19,6.19,0,0,1-1.86,3.85,5.84,5.84,0,0,1-4.07,1.35,7,7,0,0,1-2.72-.49,5.26,5.26,0,0,1-2-1.4,6.06,6.06,0,0,1-1.2-2.17,9,9,0,0,1-.4-2.77,9.86,9.86,0,0,1,.39-2.82,6.52,6.52,0,0,1,1.18-2.29,5.55,5.55,0,0,1,2-1.53,6.51,6.51,0,0,1,2.78-.56,8.12,8.12,0,0,1,2.15.27,5.23,5.23,0,0,1,1.77.84,4.63,4.63,0,0,1,1.26,1.44,5.32,5.32,0,0,1,.62,2.07h-2.29A3.37,3.37,0,0,0,476.76,74.79Z" style="fill:#4b4b4c"/><path d="M484.9,67.32v7.1h.05a2.94,2.94,0,0,1,.73-1.05,4.14,4.14,0,0,1,1.05-.7,5.49,5.49,0,0,1,1.22-.4,6.18,6.18,0,0,1,1.23-.13,5.84,5.84,0,0,1,2.21.36,3.65,3.65,0,0,1,1.43,1,3.77,3.77,0,0,1,.77,1.55,8.31,8.31,0,0,1,.22,2v8.84H491.6v-9.1a2.67,2.67,0,0,0-.73-2,2.71,2.71,0,0,0-2-.73,4.5,4.5,0,0,0-1.75.31,3.29,3.29,0,0,0-1.24.88,3.81,3.81,0,0,0-.74,1.34,5.44,5.44,0,0,0-.25,1.68v7.59h-2.21V67.32Z" style="fill:#4b4b4c"/><path d="M509,85.84a3.13,3.13,0,0,1-1.59.34,1.9,1.9,0,0,1-1.36-.48,2.09,2.09,0,0,1-.51-1.57,5.29,5.29,0,0,1-2.12,1.57,7.32,7.32,0,0,1-4.34.27,4,4,0,0,1-1.42-.65,3.12,3.12,0,0,1-.95-1.16,3.89,3.89,0,0,1-.35-1.73,4,4,0,0,1,.39-1.87,3.41,3.41,0,0,1,1-1.18,4.72,4.72,0,0,1,1.46-.69q.82-.23,1.68-.39t1.73-.27a9.54,9.54,0,0,0,1.44-.26,2.39,2.39,0,0,0,1-.49,1.2,1.2,0,0,0,.36-.95,2.2,2.2,0,0,0-.27-1.17,1.87,1.87,0,0,0-.7-.68,2.87,2.87,0,0,0-1-.31,7.3,7.3,0,0,0-1.05-.08,4.68,4.68,0,0,0-2.34.53,2.26,2.26,0,0,0-1,2h-2.21a4.77,4.77,0,0,1,.52-2.11,3.94,3.94,0,0,1,1.25-1.39,5.25,5.25,0,0,1,1.78-.77,9.42,9.42,0,0,1,2.15-.23,12.62,12.62,0,0,1,1.81.13,4.73,4.73,0,0,1,1.63.53,3.12,3.12,0,0,1,1.17,1.13,3.61,3.61,0,0,1,.44,1.89v6.9a5.12,5.12,0,0,0,.09,1.14q.09.36.61.36a2.68,2.68,0,0,0,.68-.1Zm-3.59-6.89a2.75,2.75,0,0,1-1.09.45q-.68.14-1.42.23l-1.5.21a5.52,5.52,0,0,0-1.35.37,2.46,2.46,0,0,0-1,.74,2.06,2.06,0,0,0-.38,1.31,1.78,1.78,0,0,0,.22.92,1.83,1.83,0,0,0,.57.61,2.42,2.42,0,0,0,.82.34,4.57,4.57,0,0,0,1,.1,5.26,5.26,0,0,0,1.87-.3,3.93,3.93,0,0,0,1.27-.75,3,3,0,0,0,.73-1,2.48,2.48,0,0,0,.23-1Z" style="fill:#4b4b4c"/><path d="M516.85,72.45V74.4h-2.68v8.35a2.41,2.41,0,0,0,.06.62.64.64,0,0,0,.25.36,1.09,1.09,0,0,0,.51.17,7.41,7.41,0,0,0,.85,0h1v2h-1.69a7.92,7.92,0,0,1-1.47-.12,2.15,2.15,0,0,1-1-.43,1.83,1.83,0,0,1-.56-.88,5.1,5.1,0,0,1-.18-1.51V74.4h-2.29V72.45H512v-4h2.21v4Z" style="fill:#4b4b4c"/><path d="M528.21,82.88a2.35,2.35,0,0,0,.82.81,3.68,3.68,0,0,0,1.14.43,6.53,6.53,0,0,0,1.31.13,8.14,8.14,0,0,0,1.09-.08,4,4,0,0,0,1.05-.29,2,2,0,0,0,.79-.61,1.63,1.63,0,0,0,.31-1,1.47,1.47,0,0,0-.65-1.3,5.53,5.53,0,0,0-1.62-.71q-1-.27-2.12-.49a10.94,10.94,0,0,1-2.12-.62A4.38,4.38,0,0,1,526.6,78a2.94,2.94,0,0,1-.65-2,3.22,3.22,0,0,1,.46-1.74A3.72,3.72,0,0,1,527.57,73a5.38,5.38,0,0,1,1.61-.68,7.44,7.44,0,0,1,1.78-.22,10.62,10.62,0,0,1,2.11.19,4.87,4.87,0,0,1,1.7.68A3.5,3.5,0,0,1,536,74.3a4.94,4.94,0,0,1,.52,2h-2.21a2.25,2.25,0,0,0-.34-1.08,2.22,2.22,0,0,0-.73-.69,3.33,3.33,0,0,0-1-.38,5,5,0,0,0-1.08-.12,6.6,6.6,0,0,0-1,.08,3.38,3.38,0,0,0-.92.27,1.86,1.86,0,0,0-.68.52,1.31,1.31,0,0,0-.26.85,1.24,1.24,0,0,0,.4.95,3.21,3.21,0,0,0,1,.62,8.92,8.92,0,0,0,1.4.42l1.56.35q.83.18,1.63.44a5.33,5.33,0,0,1,1.4.69,3.37,3.37,0,0,1,1,1.08,3.17,3.17,0,0,1,.38,1.61,3.74,3.74,0,0,1-.51,2,4,4,0,0,1-1.33,1.3,5.54,5.54,0,0,1-1.85.69,10.9,10.9,0,0,1-2,.2,9.44,9.44,0,0,1-2.13-.23,5.22,5.22,0,0,1-1.79-.77,3.91,3.91,0,0,1-1.25-1.4,4.85,4.85,0,0,1-.52-2.12h2.21A2.48,2.48,0,0,0,528.21,82.88Z" style="fill:#4b4b4c"/><path d="M548.57,85.89V83.76h-.05a4.52,4.52,0,0,1-1.79,1.83,5.38,5.38,0,0,1-2.57.58,6,6,0,0,1-2.21-.35,3.52,3.52,0,0,1-1.43-1,3.77,3.77,0,0,1-.77-1.55,8.32,8.32,0,0,1-.22-2V72.45h2.21v9.1a2.67,2.67,0,0,0,.73,2,2.7,2.7,0,0,0,2,.73,4.5,4.5,0,0,0,1.75-.31,3.29,3.29,0,0,0,1.24-.88,3.82,3.82,0,0,0,.74-1.34,5.45,5.45,0,0,0,.25-1.68V72.45h2.21V85.89Z" style="fill:#4b4b4c"/><path d="M556.27,72.45v1.82h.05A3.31,3.31,0,0,1,558,72.64a6.4,6.4,0,0,1,2.57-.51,6.07,6.07,0,0,1,2.72.57,5.53,5.53,0,0,1,1.92,1.55,6.83,6.83,0,0,1,1.16,2.25,9.18,9.18,0,0,1,.39,2.7,9.49,9.49,0,0,1-.38,2.7,6.37,6.37,0,0,1-1.14,2.22,5.4,5.4,0,0,1-1.92,1.5,6.25,6.25,0,0,1-2.69.55,6.69,6.69,0,0,1-1.1-.1,6.18,6.18,0,0,1-1.21-.34,4.71,4.71,0,0,1-1.13-.64,3.55,3.55,0,0,1-.9-1h-.05V91h-2.21V72.45Zm7.94,4.77a5,5,0,0,0-.75-1.6,3.7,3.7,0,0,0-1.3-1.12,4,4,0,0,0-1.86-.42,3.65,3.65,0,0,0-3.17,1.6,4.83,4.83,0,0,0-.71,1.63,7.87,7.87,0,0,0,0,3.76,4.73,4.73,0,0,0,.74,1.63,3.78,3.78,0,0,0,1.31,1.13,4.1,4.1,0,0,0,1.95.43,3.78,3.78,0,0,0,1.91-.44,3.55,3.55,0,0,0,1.23-1.17,5.1,5.1,0,0,0,.68-1.66,8.84,8.84,0,0,0,.21-1.92A6.88,6.88,0,0,0,564.21,77.22Z" style="fill:#4b4b4c"/><path d="M571.68,72.45v1.82h.05a3.31,3.31,0,0,1,1.72-1.62,6.4,6.4,0,0,1,2.57-.51,6.07,6.07,0,0,1,2.72.57,5.53,5.53,0,0,1,1.92,1.55,6.83,6.83,0,0,1,1.16,2.25,9.18,9.18,0,0,1,.39,2.7,9.49,9.49,0,0,1-.38,2.7,6.37,6.37,0,0,1-1.14,2.22,5.4,5.4,0,0,1-1.92,1.5,6.25,6.25,0,0,1-2.69.55,6.69,6.69,0,0,1-1.1-.1,6.18,6.18,0,0,1-1.21-.34,4.71,4.71,0,0,1-1.13-.64,3.55,3.55,0,0,1-.9-1h-.05V91h-2.21V72.45Zm7.94,4.77a5,5,0,0,0-.75-1.6,3.7,3.7,0,0,0-1.3-1.12,4,4,0,0,0-1.86-.42,3.65,3.65,0,0,0-3.17,1.6,4.83,4.83,0,0,0-.71,1.63,7.87,7.87,0,0,0,0,3.76,4.73,4.73,0,0,0,.74,1.63,3.78,3.78,0,0,0,1.31,1.13,4.1,4.1,0,0,0,1.95.43,3.78,3.78,0,0,0,1.91-.44A3.55,3.55,0,0,0,579,82.64a5.1,5.1,0,0,0,.68-1.66,8.84,8.84,0,0,0,.21-1.92A6.88,6.88,0,0,0,579.63,77.22Z" style="fill:#4b4b4c"/><path d="M584.5,76.41a6.26,6.26,0,0,1,1.25-2.24,5.87,5.87,0,0,1,2.05-1.5,7.53,7.53,0,0,1,5.63,0,5.91,5.91,0,0,1,2,1.5,6.28,6.28,0,0,1,1.25,2.24,9,9,0,0,1,.42,2.77,8.83,8.83,0,0,1-.42,2.76,6.29,6.29,0,0,1-1.25,2.22,5.77,5.77,0,0,1-2,1.48,7.7,7.7,0,0,1-5.63,0,5.73,5.73,0,0,1-2.05-1.48,6.27,6.27,0,0,1-1.25-2.22,8.83,8.83,0,0,1-.42-2.76A9,9,0,0,1,584.5,76.41Zm2.25,4.94a4.53,4.53,0,0,0,.9,1.59,3.88,3.88,0,0,0,1.34,1,4.08,4.08,0,0,0,3.25,0,3.88,3.88,0,0,0,1.34-1,4.55,4.55,0,0,0,.9-1.59,7.42,7.42,0,0,0,0-4.34,4.7,4.7,0,0,0-.9-1.6,3.82,3.82,0,0,0-1.34-1,4.07,4.07,0,0,0-3.25,0,3.82,3.82,0,0,0-1.34,1,4.68,4.68,0,0,0-.9,1.6,7.41,7.41,0,0,0,0,4.34Z" style="fill:#4b4b4c"/><path d="M601.74,72.45v2.83h.05a6,6,0,0,1,2-2.42,5,5,0,0,1,3-.73v2.34a6.25,6.25,0,0,0-2.26.36A3.56,3.56,0,0,0,603,75.9a4.39,4.39,0,0,0-.83,1.7,9.16,9.16,0,0,0-.26,2.3v6h-2.21V72.45Z" style="fill:#4b4b4c"/><path d="M614.14,72.45V74.4h-2.68v8.35a2.41,2.41,0,0,0,.06.62.64.64,0,0,0,.25.36,1.09,1.09,0,0,0,.51.17,7.41,7.41,0,0,0,.85,0h1v2h-1.69a7.92,7.92,0,0,1-1.47-.12,2.15,2.15,0,0,1-1-.43,1.83,1.83,0,0,1-.56-.88,5.1,5.1,0,0,1-.18-1.51V74.4H607V72.45h2.29v-4h2.21v4Z" style="fill:#4b4b4c"/><path d="M622.46,74.4V72.45h2.26v-2a3.15,3.15,0,0,1,.95-2.48,4,4,0,0,1,2.77-.85,5.74,5.74,0,0,1,.71.05,3.86,3.86,0,0,1,.72.16v1.92a2.79,2.79,0,0,0-.62-.14,5.5,5.5,0,0,0-.62,0,2.14,2.14,0,0,0-1.25.31,1.38,1.38,0,0,0-.44,1.2v1.87h2.6V74.4h-2.6V85.89h-2.21V74.4Z" style="fill:#4b4b4c"/><path d="M631.2,76.41a6.26,6.26,0,0,1,1.25-2.24,5.87,5.87,0,0,1,2.05-1.5,7.53,7.53,0,0,1,5.63,0,5.91,5.91,0,0,1,2,1.5,6.28,6.28,0,0,1,1.25,2.24,9,9,0,0,1,.42,2.77,8.83,8.83,0,0,1-.42,2.76,6.29,6.29,0,0,1-1.25,2.22,5.77,5.77,0,0,1-2,1.48,7.7,7.7,0,0,1-5.63,0,5.73,5.73,0,0,1-2.05-1.48,6.27,6.27,0,0,1-1.25-2.22,8.83,8.83,0,0,1-.42-2.76A9,9,0,0,1,631.2,76.41Zm2.25,4.94a4.53,4.53,0,0,0,.9,1.59,3.88,3.88,0,0,0,1.34,1,4.08,4.08,0,0,0,3.25,0,3.88,3.88,0,0,0,1.34-1,4.55,4.55,0,0,0,.9-1.59,7.42,7.42,0,0,0,0-4.34,4.7,4.7,0,0,0-.9-1.6,3.82,3.82,0,0,0-1.34-1,4.07,4.07,0,0,0-3.25,0,3.82,3.82,0,0,0-1.34,1,4.68,4.68,0,0,0-.9,1.6,7.41,7.41,0,0,0,0,4.34Z" style="fill:#4b4b4c"/><path d="M648.43,72.45v2.83h.05a6,6,0,0,1,2-2.42,5,5,0,0,1,3-.73v2.34a6.25,6.25,0,0,0-2.26.36,3.56,3.56,0,0,0-1.51,1.07,4.39,4.39,0,0,0-.83,1.7,9.16,9.16,0,0,0-.26,2.3v6h-2.21V72.45Z" style="fill:#4b4b4c"/><path d="M668.06,72.45V74.4h-2.68v8.35a2.41,2.41,0,0,0,.06.62.64.64,0,0,0,.25.36,1.09,1.09,0,0,0,.51.17,7.41,7.41,0,0,0,.85,0h1v2h-1.69a7.92,7.92,0,0,1-1.47-.12,2.15,2.15,0,0,1-1-.43,1.83,1.83,0,0,1-.56-.88,5.1,5.1,0,0,1-.18-1.51V74.4h-2.29V72.45h2.29v-4h2.21v4Z" style="fill:#4b4b4c"/><path d="M680,85a6.1,6.1,0,0,1-3.8,1.14,6.91,6.91,0,0,1-2.79-.52,5.51,5.51,0,0,1-2-1.46A6.18,6.18,0,0,1,670.23,82a10.76,10.76,0,0,1-.46-2.83,8.09,8.09,0,0,1,.47-2.81,6.71,6.71,0,0,1,1.31-2.21,6,6,0,0,1,2-1.46,6.11,6.11,0,0,1,2.53-.52,5.52,5.52,0,0,1,3,.74,5.89,5.89,0,0,1,1.9,1.89,7.46,7.46,0,0,1,1,2.5,10.72,10.72,0,0,1,.22,2.57H672.12a5.34,5.34,0,0,0,.21,1.68,3.8,3.8,0,0,0,.75,1.4,3.71,3.71,0,0,0,1.33,1,4.58,4.58,0,0,0,1.9.36,3.82,3.82,0,0,0,2.3-.65,3.14,3.14,0,0,0,1.18-2H682A5.37,5.37,0,0,1,680,85Zm-.53-8.63a3.79,3.79,0,0,0-.81-1.21,3.83,3.83,0,0,0-1.2-.81,3.78,3.78,0,0,0-1.52-.3,3.85,3.85,0,0,0-1.55.3,3.57,3.57,0,0,0-1.18.82,3.93,3.93,0,0,0-.78,1.21,4.6,4.6,0,0,0-.34,1.47h7.72A4.54,4.54,0,0,0,679.49,76.4Z" style="fill:#4b4b4c"/><path d="M696.38,85.84a3.13,3.13,0,0,1-1.59.34,1.9,1.9,0,0,1-1.36-.48,2.09,2.09,0,0,1-.51-1.57,5.29,5.29,0,0,1-2.12,1.57,7.32,7.32,0,0,1-4.34.27,4,4,0,0,1-1.42-.65,3.12,3.12,0,0,1-.95-1.16,3.89,3.89,0,0,1-.35-1.73,4,4,0,0,1,.39-1.87,3.41,3.41,0,0,1,1-1.18,4.72,4.72,0,0,1,1.46-.69q.82-.23,1.68-.39T690,78a9.54,9.54,0,0,0,1.44-.26,2.39,2.39,0,0,0,1-.49,1.2,1.2,0,0,0,.36-.95,2.2,2.2,0,0,0-.27-1.17,1.87,1.87,0,0,0-.7-.68,2.87,2.87,0,0,0-1-.31,7.3,7.3,0,0,0-1.05-.08,4.68,4.68,0,0,0-2.34.53,2.26,2.26,0,0,0-1,2h-2.21a4.77,4.77,0,0,1,.52-2.11A3.94,3.94,0,0,1,686,73.13a5.25,5.25,0,0,1,1.78-.77,9.42,9.42,0,0,1,2.15-.23,12.62,12.62,0,0,1,1.81.13,4.73,4.73,0,0,1,1.63.53,3.12,3.12,0,0,1,1.17,1.13,3.61,3.61,0,0,1,.44,1.89v6.9a5.12,5.12,0,0,0,.09,1.14q.09.36.61.36a2.68,2.68,0,0,0,.68-.1Zm-3.59-6.89a2.75,2.75,0,0,1-1.09.45q-.68.14-1.42.23l-1.5.21a5.52,5.52,0,0,0-1.35.37,2.46,2.46,0,0,0-1,.74,2.06,2.06,0,0,0-.38,1.31,1.78,1.78,0,0,0,.22.92,1.83,1.83,0,0,0,.57.61,2.42,2.42,0,0,0,.82.34,4.57,4.57,0,0,0,1,.1,5.26,5.26,0,0,0,1.87-.3,3.93,3.93,0,0,0,1.27-.75,3,3,0,0,0,.73-1,2.48,2.48,0,0,0,.23-1Z" style="fill:#4b4b4c"/><path d="M700.51,72.45v2h.05a5.24,5.24,0,0,1,6.6-1.77,2.91,2.91,0,0,1,1.43,1.77,4.69,4.69,0,0,1,1.78-1.69,5,5,0,0,1,2.43-.6,7.05,7.05,0,0,1,1.83.22A3.81,3.81,0,0,1,716,73a3.12,3.12,0,0,1,.91,1.21,4.41,4.41,0,0,1,.33,1.78v9.85h-2.21V77.07a6.29,6.29,0,0,0-.1-1.17,2.4,2.4,0,0,0-.39-.95,2,2,0,0,0-.79-.64,3.15,3.15,0,0,0-1.31-.23,3.48,3.48,0,0,0-2.57.94,3.37,3.37,0,0,0-.94,2.5v8.37h-2.21V77.07a5.74,5.74,0,0,0-.12-1.2,2.55,2.55,0,0,0-.4-.95,1.89,1.89,0,0,0-.77-.62,3,3,0,0,0-1.23-.22,3.3,3.3,0,0,0-1.65.39,3.74,3.74,0,0,0-1.74,2.07,3.21,3.21,0,0,0-.19,1v8.37h-2.21V72.45Z" style="fill:#4b4b4c"/><path d="M722.3,82.88a2.35,2.35,0,0,0,.82.81,3.68,3.68,0,0,0,1.14.43,6.53,6.53,0,0,0,1.31.13,8.14,8.14,0,0,0,1.09-.08,4,4,0,0,0,1.05-.29,2,2,0,0,0,.79-.61,1.63,1.63,0,0,0,.31-1,1.47,1.47,0,0,0-.65-1.3,5.53,5.53,0,0,0-1.62-.71q-1-.27-2.12-.49a10.94,10.94,0,0,1-2.12-.62A4.38,4.38,0,0,1,720.69,78a2.94,2.94,0,0,1-.65-2,3.22,3.22,0,0,1,.46-1.74A3.72,3.72,0,0,1,721.66,73a5.38,5.38,0,0,1,1.61-.68,7.44,7.44,0,0,1,1.78-.22,10.62,10.62,0,0,1,2.11.19,4.87,4.87,0,0,1,1.7.68A3.5,3.5,0,0,1,730,74.3a4.94,4.94,0,0,1,.52,2h-2.21a2.25,2.25,0,0,0-.34-1.08,2.22,2.22,0,0,0-.73-.69,3.33,3.33,0,0,0-1-.38,5,5,0,0,0-1.08-.12,6.6,6.6,0,0,0-1,.08,3.38,3.38,0,0,0-.92.27,1.86,1.86,0,0,0-.68.52,1.31,1.31,0,0,0-.26.85,1.24,1.24,0,0,0,.4.95,3.21,3.21,0,0,0,1,.62,8.92,8.92,0,0,0,1.4.42l1.56.35q.83.18,1.63.44a5.33,5.33,0,0,1,1.4.69,3.37,3.37,0,0,1,1,1.08,3.17,3.17,0,0,1,.38,1.61,3.74,3.74,0,0,1-.51,2,4,4,0,0,1-1.33,1.3,5.54,5.54,0,0,1-1.85.69,10.9,10.9,0,0,1-2,.2,9.44,9.44,0,0,1-2.13-.23,5.22,5.22,0,0,1-1.79-.77,3.91,3.91,0,0,1-1.25-1.4,4.85,4.85,0,0,1-.52-2.12H722A2.48,2.48,0,0,0,722.3,82.88Z" style="fill:#4b4b4c"/><path d="M31.13,107.61a6.26,6.26,0,0,1,1.25-2.24,5.87,5.87,0,0,1,2.05-1.5,7.53,7.53,0,0,1,5.63,0,5.91,5.91,0,0,1,2,1.5,6.28,6.28,0,0,1,1.25,2.24,9,9,0,0,1,.42,2.77,8.83,8.83,0,0,1-.42,2.76,6.29,6.29,0,0,1-1.25,2.22,5.77,5.77,0,0,1-2,1.48,7.7,7.7,0,0,1-5.63,0,5.73,5.73,0,0,1-2.05-1.48,6.27,6.27,0,0,1-1.25-2.22,8.83,8.83,0,0,1-.42-2.76A9,9,0,0,1,31.13,107.61Zm2.25,4.94a4.53,4.53,0,0,0,.9,1.59,3.88,3.88,0,0,0,1.34,1,4.08,4.08,0,0,0,3.25,0,3.88,3.88,0,0,0,1.34-1,4.55,4.55,0,0,0,.9-1.59,7.42,7.42,0,0,0,0-4.34,4.7,4.7,0,0,0-.9-1.6,3.82,3.82,0,0,0-1.34-1,4.07,4.07,0,0,0-3.25,0,3.82,3.82,0,0,0-1.34,1,4.68,4.68,0,0,0-.9,1.6,7.41,7.41,0,0,0,0,4.34Z" style="fill:#4b4b4c"/><path d="M45,105.59v-1.95h2.26v-2a3.15,3.15,0,0,1,.95-2.48A4,4,0,0,1,51,98.31a5.74,5.74,0,0,1,.71.05,3.86,3.86,0,0,1,.72.16v1.92a2.79,2.79,0,0,0-.62-.14,5.5,5.5,0,0,0-.62,0,2.14,2.14,0,0,0-1.25.31,1.38,1.38,0,0,0-.44,1.2v1.87h2.6v1.95h-2.6v11.49H47.27V105.59Z" style="fill:#4b4b4c"/><path d="M66.67,117.09V103.88H61.88v-1.77A11.34,11.34,0,0,0,63.7,102a5,5,0,0,0,1.6-.53,3.65,3.65,0,0,0,1.21-1.07,4.06,4.06,0,0,0,.68-1.72h1.69v18.43Z" style="fill:#4b4b4c"/><path d="M78.86,100.92l-1,5.3.05.05a3.55,3.55,0,0,1,1.55-1,5.78,5.78,0,0,1,1.88-.33,6.82,6.82,0,0,1,2.31.39,5.13,5.13,0,0,1,1.9,1.18,5.64,5.64,0,0,1,1.27,2,7.5,7.5,0,0,1,.47,2.77,6.59,6.59,0,0,1-.4,2.28,5.69,5.69,0,0,1-1.21,2,5.8,5.8,0,0,1-2,1.36,7.25,7.25,0,0,1-2.82.51,7.07,7.07,0,0,1-2.25-.35,5.76,5.76,0,0,1-1.86-1,4.72,4.72,0,0,1-1.27-1.65,5.43,5.43,0,0,1-.49-2.24H77.2a3.54,3.54,0,0,0,.35,1.31,3.46,3.46,0,0,0,.81,1.07,3.58,3.58,0,0,0,1.2.7,4.48,4.48,0,0,0,1.52.25,4.15,4.15,0,0,0,1.49-.27,3.44,3.44,0,0,0,1.25-.82,3.92,3.92,0,0,0,.85-1.37,5.35,5.35,0,0,0,.31-1.91,4.59,4.59,0,0,0-.3-1.68,3.91,3.91,0,0,0-.85-1.33,3.83,3.83,0,0,0-1.31-.87,4.48,4.48,0,0,0-1.7-.31,3.84,3.84,0,0,0-1.94.48,5.44,5.44,0,0,0-1.5,1.26l-1.9-.1L77.2,99h9.1v2Z" style="fill:#4b4b4c"/><path d="M97.11,107.61a6.26,6.26,0,0,1,1.25-2.24,5.87,5.87,0,0,1,2.05-1.5,7.53,7.53,0,0,1,5.63,0,5.91,5.91,0,0,1,2,1.5,6.28,6.28,0,0,1,1.25,2.24,9,9,0,0,1,.42,2.77,8.83,8.83,0,0,1-.42,2.76,6.29,6.29,0,0,1-1.25,2.22,5.77,5.77,0,0,1-2,1.48,7.7,7.7,0,0,1-5.63,0,5.73,5.73,0,0,1-2.05-1.48,6.27,6.27,0,0,1-1.25-2.22,8.83,8.83,0,0,1-.42-2.76A9,9,0,0,1,97.11,107.61Zm2.25,4.94a4.53,4.53,0,0,0,.9,1.59,3.88,3.88,0,0,0,1.34,1,4.08,4.08,0,0,0,3.25,0,3.88,3.88,0,0,0,1.34-1,4.55,4.55,0,0,0,.9-1.59,7.42,7.42,0,0,0,0-4.34,4.7,4.7,0,0,0-.9-1.6,3.82,3.82,0,0,0-1.34-1,4.07,4.07,0,0,0-3.25,0,3.82,3.82,0,0,0-1.34,1,4.68,4.68,0,0,0-.9,1.6,7.41,7.41,0,0,0,0,4.34Z" style="fill:#4b4b4c"/><path d="M114.35,103.65v2.83h.05a6,6,0,0,1,2-2.42,5,5,0,0,1,3-.73v2.34a6.25,6.25,0,0,0-2.26.36,3.56,3.56,0,0,0-1.51,1.07,4.39,4.39,0,0,0-.83,1.7,9.16,9.16,0,0,0-.26,2.3v6h-2.21V103.65Z" style="fill:#4b4b4c"/><path d="M130.31,103.65v2h.05a5.24,5.24,0,0,1,6.6-1.77,2.91,2.91,0,0,1,1.43,1.77,4.69,4.69,0,0,1,1.78-1.69,5,5,0,0,1,2.43-.6,7.05,7.05,0,0,1,1.83.22,3.81,3.81,0,0,1,1.4.69,3.12,3.12,0,0,1,.91,1.21,4.41,4.41,0,0,1,.33,1.78v9.85h-2.21v-8.81a6.29,6.29,0,0,0-.1-1.17,2.4,2.4,0,0,0-.39-.95,2,2,0,0,0-.79-.64,3.15,3.15,0,0,0-1.31-.23,3.48,3.48,0,0,0-2.57.94,3.37,3.37,0,0,0-.94,2.5v8.37h-2.21v-8.81a5.74,5.74,0,0,0-.12-1.2,2.55,2.55,0,0,0-.4-.95,1.89,1.89,0,0,0-.77-.62,3,3,0,0,0-1.23-.22,3.3,3.3,0,0,0-1.65.39,3.74,3.74,0,0,0-1.74,2.07,3.21,3.21,0,0,0-.19,1v8.37h-2.21V103.65Z" style="fill:#4b4b4c"/><path d="M150.1,107.61a6.26,6.26,0,0,1,1.25-2.24,5.87,5.87,0,0,1,2.05-1.5,7.53,7.53,0,0,1,5.63,0,5.91,5.91,0,0,1,2,1.5,6.28,6.28,0,0,1,1.25,2.24,9,9,0,0,1,.42,2.77,8.83,8.83,0,0,1-.42,2.76,6.29,6.29,0,0,1-1.25,2.22,5.77,5.77,0,0,1-2,1.48,7.7,7.7,0,0,1-5.63,0,5.73,5.73,0,0,1-2.05-1.48,6.27,6.27,0,0,1-1.25-2.22,8.83,8.83,0,0,1-.42-2.76A9,9,0,0,1,150.1,107.61Zm2.25,4.94a4.53,4.53,0,0,0,.9,1.59,3.88,3.88,0,0,0,1.34,1,4.08,4.08,0,0,0,3.25,0,3.88,3.88,0,0,0,1.34-1,4.55,4.55,0,0,0,.9-1.59,7.42,7.42,0,0,0,0-4.34,4.7,4.7,0,0,0-.9-1.6,3.82,3.82,0,0,0-1.34-1,4.07,4.07,0,0,0-3.25,0,3.82,3.82,0,0,0-1.34,1,4.68,4.68,0,0,0-.9,1.6,7.41,7.41,0,0,0,0,4.34Z" style="fill:#4b4b4c"/><path d="M167.34,103.65v2.83h.05a6,6,0,0,1,2-2.42,5,5,0,0,1,3-.73v2.34a6.25,6.25,0,0,0-2.26.36,3.56,3.56,0,0,0-1.51,1.07,4.39,4.39,0,0,0-.83,1.7,9.16,9.16,0,0,0-.26,2.3v6h-2.21V103.65Z" style="fill:#4b4b4c"/><path d="M183,116.23a6.1,6.1,0,0,1-3.8,1.14,6.91,6.91,0,0,1-2.79-.52,5.51,5.51,0,0,1-2-1.46,6.18,6.18,0,0,1-1.21-2.24,10.76,10.76,0,0,1-.46-2.83,8.09,8.09,0,0,1,.47-2.81,6.71,6.71,0,0,1,1.31-2.21,6,6,0,0,1,2-1.46,6.11,6.11,0,0,1,2.53-.52,5.52,5.52,0,0,1,3,.74A5.89,5.89,0,0,1,184,106a7.46,7.46,0,0,1,1,2.5,10.72,10.72,0,0,1,.22,2.57H175.14a5.34,5.34,0,0,0,.21,1.68,3.8,3.8,0,0,0,.75,1.4,3.71,3.71,0,0,0,1.33,1,4.58,4.58,0,0,0,1.9.36,3.82,3.82,0,0,0,2.3-.65,3.14,3.14,0,0,0,1.18-2H185A5.37,5.37,0,0,1,183,116.23Zm-.53-8.63a3.79,3.79,0,0,0-.81-1.21,3.83,3.83,0,0,0-1.2-.81,3.78,3.78,0,0,0-1.52-.3,3.85,3.85,0,0,0-1.55.3,3.57,3.57,0,0,0-1.18.82,3.93,3.93,0,0,0-.78,1.21,4.6,4.6,0,0,0-.34,1.47h7.72A4.54,4.54,0,0,0,182.51,107.6Z" style="fill:#4b4b4c"/><path d="M197,103.65v1.82h.05a3.31,3.31,0,0,1,1.72-1.62,6.4,6.4,0,0,1,2.57-.51,6.07,6.07,0,0,1,2.72.57,5.53,5.53,0,0,1,1.92,1.55,6.83,6.83,0,0,1,1.16,2.25,9.18,9.18,0,0,1,.39,2.7,9.49,9.49,0,0,1-.38,2.7,6.37,6.37,0,0,1-1.14,2.22,5.4,5.4,0,0,1-1.92,1.5,6.25,6.25,0,0,1-2.69.55,6.69,6.69,0,0,1-1.1-.1,6.18,6.18,0,0,1-1.21-.34,4.71,4.71,0,0,1-1.13-.64,3.55,3.55,0,0,1-.9-1H197v6.92h-2.21V103.65Zm7.94,4.77a5,5,0,0,0-.75-1.6,3.7,3.7,0,0,0-1.3-1.12,4,4,0,0,0-1.86-.42,3.65,3.65,0,0,0-3.17,1.6,4.83,4.83,0,0,0-.71,1.63,7.87,7.87,0,0,0,0,3.76,4.73,4.73,0,0,0,.74,1.63,3.78,3.78,0,0,0,1.31,1.13,4.1,4.1,0,0,0,1.95.43,3.78,3.78,0,0,0,1.91-.44,3.55,3.55,0,0,0,1.23-1.17,5.1,5.1,0,0,0,.68-1.66,8.84,8.84,0,0,0,.21-1.92A6.88,6.88,0,0,0,204.95,108.42Z" style="fill:#4b4b4c"/><path d="M219.65,116.23a6.1,6.1,0,0,1-3.8,1.14,6.91,6.91,0,0,1-2.79-.52,5.51,5.51,0,0,1-2-1.46,6.18,6.18,0,0,1-1.21-2.24,10.76,10.76,0,0,1-.46-2.83,8.09,8.09,0,0,1,.47-2.81,6.71,6.71,0,0,1,1.31-2.21,6,6,0,0,1,2-1.46,6.11,6.11,0,0,1,2.53-.52,5.52,5.52,0,0,1,3,.74,5.89,5.89,0,0,1,1.9,1.89,7.46,7.46,0,0,1,1,2.5,10.72,10.72,0,0,1,.22,2.57H211.74a5.34,5.34,0,0,0,.21,1.68,3.8,3.8,0,0,0,.75,1.4,3.71,3.71,0,0,0,1.33,1,4.58,4.58,0,0,0,1.9.36,3.82,3.82,0,0,0,2.3-.65,3.14,3.14,0,0,0,1.18-2h2.18A5.37,5.37,0,0,1,219.65,116.23Zm-.53-8.63a3.79,3.79,0,0,0-.81-1.21,3.83,3.83,0,0,0-1.2-.81,3.78,3.78,0,0,0-1.52-.3,3.85,3.85,0,0,0-1.55.3,3.57,3.57,0,0,0-1.18.82,3.93,3.93,0,0,0-.78,1.21,4.6,4.6,0,0,0-.34,1.47h7.72A4.54,4.54,0,0,0,219.12,107.6Z" style="fill:#4b4b4c"/><path d="M223.78,107.61a6.26,6.26,0,0,1,1.25-2.24,5.87,5.87,0,0,1,2.05-1.5,7.53,7.53,0,0,1,5.63,0,5.91,5.91,0,0,1,2,1.5,6.28,6.28,0,0,1,1.25,2.24,9,9,0,0,1,.42,2.77,8.83,8.83,0,0,1-.42,2.76,6.29,6.29,0,0,1-1.25,2.22,5.77,5.77,0,0,1-2,1.48,7.7,7.7,0,0,1-5.63,0,5.73,5.73,0,0,1-2.05-1.48,6.27,6.27,0,0,1-1.25-2.22,8.83,8.83,0,0,1-.42-2.76A9,9,0,0,1,223.78,107.61Zm2.25,4.94a4.53,4.53,0,0,0,.9,1.59,3.88,3.88,0,0,0,1.34,1,4.08,4.08,0,0,0,3.25,0,3.88,3.88,0,0,0,1.34-1,4.55,4.55,0,0,0,.9-1.59,7.42,7.42,0,0,0,0-4.34,4.7,4.7,0,0,0-.9-1.6,3.82,3.82,0,0,0-1.34-1,4.07,4.07,0,0,0-3.25,0,3.82,3.82,0,0,0-1.34,1,4.68,4.68,0,0,0-.9,1.6,7.41,7.41,0,0,0,0,4.34Z" style="fill:#4b4b4c"/><path d="M241.31,103.65v1.82h.05a3.31,3.31,0,0,1,1.72-1.62,6.4,6.4,0,0,1,2.57-.51,6.07,6.07,0,0,1,2.72.57,5.53,5.53,0,0,1,1.92,1.55,6.83,6.83,0,0,1,1.16,2.25,9.18,9.18,0,0,1,.39,2.7,9.49,9.49,0,0,1-.38,2.7,6.37,6.37,0,0,1-1.14,2.22,5.4,5.4,0,0,1-1.92,1.5,6.25,6.25,0,0,1-2.69.55,6.69,6.69,0,0,1-1.1-.1,6.18,6.18,0,0,1-1.21-.34,4.71,4.71,0,0,1-1.13-.64,3.55,3.55,0,0,1-.9-1h-.05v6.92H239.1V103.65Zm7.94,4.77a5,5,0,0,0-.75-1.6,3.7,3.7,0,0,0-1.3-1.12,4,4,0,0,0-1.86-.42,3.65,3.65,0,0,0-3.17,1.6,4.83,4.83,0,0,0-.71,1.63,7.87,7.87,0,0,0,0,3.76,4.73,4.73,0,0,0,.74,1.63,3.78,3.78,0,0,0,1.31,1.13,4.1,4.1,0,0,0,1.95.43,3.78,3.78,0,0,0,1.91-.44,3.55,3.55,0,0,0,1.23-1.17,5.1,5.1,0,0,0,.68-1.66,8.84,8.84,0,0,0,.21-1.92A6.88,6.88,0,0,0,249.25,108.42Z" style="fill:#4b4b4c"/><path d="M256.78,98.52v18.56h-2.21V98.52Z" style="fill:#4b4b4c"/><path d="M269.72,116.23a6.1,6.1,0,0,1-3.8,1.14,6.91,6.91,0,0,1-2.79-.52,5.51,5.51,0,0,1-2-1.46,6.18,6.18,0,0,1-1.21-2.24,10.76,10.76,0,0,1-.46-2.83,8.09,8.09,0,0,1,.47-2.81,6.71,6.71,0,0,1,1.31-2.21,6,6,0,0,1,2-1.46,6.11,6.11,0,0,1,2.53-.52,5.52,5.52,0,0,1,3,.74,5.89,5.89,0,0,1,1.9,1.89,7.46,7.46,0,0,1,1,2.5,10.72,10.72,0,0,1,.22,2.57H261.82a5.34,5.34,0,0,0,.21,1.68,3.8,3.8,0,0,0,.75,1.4,3.71,3.71,0,0,0,1.33,1,4.58,4.58,0,0,0,1.9.36,3.82,3.82,0,0,0,2.3-.65,3.14,3.14,0,0,0,1.18-2h2.18A5.37,5.37,0,0,1,269.72,116.23Zm-.53-8.63a3.79,3.79,0,0,0-.81-1.21,3.83,3.83,0,0,0-1.2-.81,3.78,3.78,0,0,0-1.52-.3,3.85,3.85,0,0,0-1.55.3,3.57,3.57,0,0,0-1.18.82,3.93,3.93,0,0,0-.78,1.21,4.6,4.6,0,0,0-.34,1.47h7.72A4.54,4.54,0,0,0,269.19,107.6Z" style="fill:#4b4b4c"/><rect x="798.56" y="30.34" width="194.88" height="51.07" rx="4.81" ry="4.81" style="fill:#fff;stroke:#4c1;stroke-miterlimit:10;stroke-width:4.2px"/><path d="M849.37,46.1a7.5,7.5,0,0,1,2.87.49,5.38,5.38,0,0,1,1.93,1.3,5,5,0,0,1,1.08,1.84,6.87,6.87,0,0,1,0,4.27,5,5,0,0,1-1.08,1.85,5.38,5.38,0,0,1-1.93,1.3,7.51,7.51,0,0,1-2.87.49h-4.16V64.1h-4v-18Zm-1.08,8.47a8.27,8.27,0,0,0,1.31-.1,3,3,0,0,0,1.11-.39,2.13,2.13,0,0,0,.77-.82,3.46,3.46,0,0,0,0-2.77,2.13,2.13,0,0,0-.77-.82,3,3,0,0,0-1.11-.39,8.27,8.27,0,0,0-1.31-.1h-3.07v5.39Z" style="fill:#4d4d4d"/><path d="M866.5,64.1V62.28h-.08a4,4,0,0,1-1.76,1.64,5.21,5.21,0,0,1-2.22.5,6.26,6.26,0,0,1-2.36-.38A3.4,3.4,0,0,1,858.64,63a4.19,4.19,0,0,1-.74-1.69,10.48,10.48,0,0,1-.21-2.21v-8h3.58v7.36a4.56,4.56,0,0,0,.5,2.41,2,2,0,0,0,1.79.79,2.48,2.48,0,0,0,2.12-.87,4.84,4.84,0,0,0,.66-2.86V51.07h3.58v13Z" style="fill:#4d4d4d"/><path d="M876,51.07v2.42h.05a4.39,4.39,0,0,1,.68-1.12,4.47,4.47,0,0,1,1-.88,4.82,4.82,0,0,1,1.18-.57,4.28,4.28,0,0,1,1.31-.2,2.81,2.81,0,0,1,.78.13v3.33l-.6-.09a6.47,6.47,0,0,0-.68,0,3.81,3.81,0,0,0-1.66.33,2.88,2.88,0,0,0-1.1.89,3.58,3.58,0,0,0-.59,1.32,7.2,7.2,0,0,0-.18,1.64V64.1h-3.58v-13Z" style="fill:#4d4d4d"/><path d="M888.2,53.41a2.51,2.51,0,0,0-1.44.39,3.11,3.11,0,0,0-.95,1,4.36,4.36,0,0,0-.52,1.36,7.39,7.39,0,0,0-.15,1.47,7.09,7.09,0,0,0,.15,1.44,4.44,4.44,0,0,0,.49,1.32,2.82,2.82,0,0,0,.92,1,2.53,2.53,0,0,0,1.41.38,2.62,2.62,0,0,0,2-.72,3.4,3.4,0,0,0,.87-1.93h3.45a5.9,5.9,0,0,1-2,4,6.51,6.51,0,0,1-4.26,1.36,7.14,7.14,0,0,1-2.68-.49,5.94,5.94,0,0,1-2.08-1.37,6.24,6.24,0,0,1-1.34-2.1,7.29,7.29,0,0,1-.48-2.68A8.68,8.68,0,0,1,882,55a6.32,6.32,0,0,1,1.3-2.24,6,6,0,0,1,2.09-1.47,7.11,7.11,0,0,1,2.82-.53,8.17,8.17,0,0,1,2.23.3,6,6,0,0,1,1.92.92,4.76,4.76,0,0,1,2,3.72h-3.5A2.4,2.4,0,0,0,888.2,53.41Z" style="fill:#4d4d4d"/><path d="M900,46.1v6.78h.08a4.14,4.14,0,0,1,1.74-1.65,4.7,4.7,0,0,1,2.07-.52,6.08,6.08,0,0,1,2.36.39,3.5,3.5,0,0,1,1.45,1.08,4.2,4.2,0,0,1,.74,1.69,10.52,10.52,0,0,1,.21,2.21v8h-3.58V56.74a4.57,4.57,0,0,0-.5-2.41,2,2,0,0,0-1.79-.79,2.48,2.48,0,0,0-2.12.87,4.83,4.83,0,0,0-.66,2.86V64.1h-3.58v-18Z" style="fill:#4d4d4d"/><path d="M911.23,55.07a4.15,4.15,0,0,1,.63-2.09,4.29,4.29,0,0,1,1.41-1.34,6.15,6.15,0,0,1,1.93-.72,11,11,0,0,1,2.15-.21,14.63,14.63,0,0,1,2,.14,6.11,6.11,0,0,1,1.84.54,3.63,3.63,0,0,1,1.36,1.12,3.13,3.13,0,0,1,.53,1.9V61.2a13.58,13.58,0,0,0,.1,1.69,3,3,0,0,0,.35,1.21H919.9a5,5,0,0,1-.16-.62,5.24,5.24,0,0,1-.09-.64,4.66,4.66,0,0,1-2,1.23,8.09,8.09,0,0,1-2.37.35,6.39,6.39,0,0,1-1.74-.23,4,4,0,0,1-1.41-.71,3.28,3.28,0,0,1-.95-1.21,4.09,4.09,0,0,1-.34-1.74,3.8,3.8,0,0,1,.39-1.83,3.27,3.27,0,0,1,1-1.15,4.52,4.52,0,0,1,1.41-.64,15.24,15.24,0,0,1,1.6-.34q.81-.13,1.59-.2a9.57,9.57,0,0,0,1.39-.23,2.41,2.41,0,0,0,1-.44,1,1,0,0,0,.33-.84,1.9,1.9,0,0,0-.19-.92,1.39,1.39,0,0,0-.5-.53,2,2,0,0,0-.73-.25,6,6,0,0,0-.89-.06,2.72,2.72,0,0,0-1.66.45,2,2,0,0,0-.71,1.51Zm8.27,2.65a1.6,1.6,0,0,1-.57.31,5.76,5.76,0,0,1-.73.19q-.39.08-.82.13l-.86.13a6.45,6.45,0,0,0-.79.2,2.36,2.36,0,0,0-.68.34,1.62,1.62,0,0,0-.47.54,1.74,1.74,0,0,0-.18.83,1.68,1.68,0,0,0,.18.81,1.35,1.35,0,0,0,.48.52,2,2,0,0,0,.71.26,4.51,4.51,0,0,0,.83.08,3.16,3.16,0,0,0,1.64-.35,2.36,2.36,0,0,0,.86-.84,2.69,2.69,0,0,0,.34-1,6.84,6.84,0,0,0,.06-.81Z" style="fill:#4d4d4d"/><path d="M928.86,60.86a2.1,2.1,0,0,0,.62.68,2.65,2.65,0,0,0,.87.39,4.09,4.09,0,0,0,1,.13,3.81,3.81,0,0,0,.79-.09,2.69,2.69,0,0,0,.76-.28,1.71,1.71,0,0,0,.57-.5,1.33,1.33,0,0,0,.23-.79q0-.81-1.07-1.21a21.43,21.43,0,0,0-3-.81q-.78-.18-1.52-.42a5.19,5.19,0,0,1-1.32-.63,3.05,3.05,0,0,1-.93-1,2.78,2.78,0,0,1-.35-1.45,3.92,3.92,0,0,1,.49-2.07,3.63,3.63,0,0,1,1.3-1.27,5.7,5.7,0,0,1,1.81-.66,11.19,11.19,0,0,1,2.07-.19,10.33,10.33,0,0,1,2.05.2,5.44,5.44,0,0,1,1.78.68,4.08,4.08,0,0,1,1.3,1.27,4.28,4.28,0,0,1,.62,2h-3.4a1.57,1.57,0,0,0-.78-1.4,3.57,3.57,0,0,0-1.66-.37,6.13,6.13,0,0,0-.66,0,2.17,2.17,0,0,0-.64.16,1.33,1.33,0,0,0-.49.37,1,1,0,0,0-.2.64,1,1,0,0,0,.35.78,2.72,2.72,0,0,0,.92.49,11.43,11.43,0,0,0,1.3.34l1.49.33a15.29,15.29,0,0,1,1.52.43,5,5,0,0,1,1.32.67,3.24,3.24,0,0,1,.93,1,3,3,0,0,1,.35,1.52,4,4,0,0,1-1.86,3.55,5.53,5.53,0,0,1-1.9.74,11.11,11.11,0,0,1-2.18.21,10.79,10.79,0,0,1-2.22-.23,5.84,5.84,0,0,1-1.93-.76,4.31,4.31,0,0,1-1.39-1.4,4.37,4.37,0,0,1-.59-2.18h3.4A2,2,0,0,0,928.86,60.86Z" style="fill:#4d4d4d"/><path d="M943.21,61a3.67,3.67,0,0,0,4.18.24,2.25,2.25,0,0,0,1-1.15h3.15a6,6,0,0,1-2.32,3.35,6.83,6.83,0,0,1-3.78,1,7.45,7.45,0,0,1-2.77-.49,5.76,5.76,0,0,1-2.09-1.4,6.29,6.29,0,0,1-1.32-2.17,7.93,7.93,0,0,1-.47-2.77,7.6,7.6,0,0,1,.48-2.72,6.3,6.3,0,0,1,3.47-3.63,6.75,6.75,0,0,1,2.71-.53,6.2,6.2,0,0,1,2.9.64,5.79,5.79,0,0,1,2,1.73,7.11,7.11,0,0,1,1.15,2.47,9.22,9.22,0,0,1,.25,2.9h-9.4A3.61,3.61,0,0,0,943.21,61Zm4-6.85a2.51,2.51,0,0,0-2-.71,3.12,3.12,0,0,0-1.42.29,2.72,2.72,0,0,0-.91.72,2.63,2.63,0,0,0-.48.91,4.07,4.07,0,0,0-.16.86h5.82A4.14,4.14,0,0,0,947.26,54.12Z" style="fill:#4d4d4d"/><path d="M800,104.7c0-1.49,0-2.69-.1-3.79h1.9l.1,2h0a4.57,4.57,0,0,1,4.13-2.26c2.81,0,4.92,2.38,4.92,5.9,0,4.18-2.54,6.24-5.28,6.24a4.08,4.08,0,0,1-3.58-1.82h0v6.31H800Zm2.09,3.1a4.73,4.73,0,0,0,.1.86,3.26,3.26,0,0,0,3.17,2.47c2.23,0,3.53-1.82,3.53-4.49,0-2.33-1.22-4.32-3.46-4.32a3.37,3.37,0,0,0-3.19,2.62,3.41,3.41,0,0,0-.14.86Z" style="fill:#888"/><path d="M820,112.52l-.17-1.46h-.07a4.33,4.33,0,0,1-3.55,1.73,3.31,3.31,0,0,1-3.55-3.34c0-2.81,2.5-4.34,7-4.32v-.24A2.39,2.39,0,0,0,817,102.2a5.79,5.79,0,0,0-3,.86l-.48-1.39a7.21,7.21,0,0,1,3.82-1c3.55,0,4.42,2.42,4.42,4.75v4.34a16.36,16.36,0,0,0,.19,2.78Zm-.31-5.93c-2.3,0-4.92.36-4.92,2.62a1.87,1.87,0,0,0,2,2,2.89,2.89,0,0,0,2.81-1.94,2.2,2.2,0,0,0,.12-.67Z" style="fill:#888"/><path d="M825.75,100.9l2.54,6.86c.26.77.55,1.68.74,2.38h0c.22-.7.46-1.58.74-2.42l2.3-6.82h2.23l-3.17,8.28c-1.51,4-2.54,6-4,7.27a5.73,5.73,0,0,1-2.59,1.37L824.1,116a5.58,5.58,0,0,0,1.85-1,6.41,6.41,0,0,0,1.78-2.35,1.51,1.51,0,0,0,.17-.5,1.84,1.84,0,0,0-.14-.55l-4.3-10.71Z" style="fill:#888"/><path d="M836.29,104c0-1.2,0-2.18-.1-3.14H838l.1,1.87h.07a4,4,0,0,1,3.65-2.14,3.43,3.43,0,0,1,3.29,2.33h0a4.79,4.79,0,0,1,1.3-1.51,4,4,0,0,1,2.57-.82c1.54,0,3.82,1,3.82,5v6.84h-2.06v-6.58c0-2.23-.82-3.58-2.52-3.58a2.74,2.74,0,0,0-2.5,1.92,3.49,3.49,0,0,0-.17,1.06v7.18h-2.06v-7c0-1.85-.82-3.19-2.42-3.19a3.15,3.15,0,0,0-2.78,3.14v7h-2.06Z" style="fill:#888"/><path d="M857.48,107.1a3.72,3.72,0,0,0,4,4,7.64,7.64,0,0,0,3.22-.6L865,112a9.41,9.41,0,0,1-3.86.72c-3.58,0-5.71-2.35-5.71-5.86s2.06-6.26,5.45-6.26c3.79,0,4.8,3.34,4.8,5.47a8,8,0,0,1-.07,1Zm6.19-1.51c0-1.34-.55-3.43-2.93-3.43-2.14,0-3.07,2-3.24,3.43Z" style="fill:#888"/><path d="M868.33,104c0-1.2,0-2.18-.1-3.14h1.87l.12,1.92h0a4.27,4.27,0,0,1,3.84-2.18c1.61,0,4.1,1,4.1,4.94v6.94h-2.11v-6.7c0-1.87-.7-3.43-2.69-3.43a3,3,0,0,0-2.83,2.16,3,3,0,0,0-.14,1v7h-2.11Z" style="fill:#888"/><path d="M884.1,97.57v3.34h3v1.61h-3v6.26c0,1.44.41,2.26,1.58,2.26a4.68,4.68,0,0,0,1.22-.14l.1,1.58a5.17,5.17,0,0,1-1.87.29,2.93,2.93,0,0,1-2.28-.89,4.3,4.3,0,0,1-.82-3v-6.34h-1.8V100.9H882V98.12Z" style="fill:#888"/><path d="M889.21,110.36a5.53,5.53,0,0,0,2.78.84c1.54,0,2.26-.77,2.26-1.73s-.6-1.56-2.16-2.14c-2.09-.74-3.07-1.9-3.07-3.29,0-1.87,1.51-3.41,4-3.41a5.8,5.8,0,0,1,2.86.72l-.53,1.54a4.52,4.52,0,0,0-2.38-.67c-1.25,0-1.94.72-1.94,1.58s.7,1.39,2.21,2c2,.77,3,1.78,3,3.5,0,2-1.58,3.48-4.34,3.48a6.62,6.62,0,0,1-3.26-.79Z" style="fill:#888"/><path d="M904,112.52c0-.79.1-2,.1-3v-14h2.09v7.3h0a4.33,4.33,0,0,1,4-2.14c2.88,0,4.92,2.4,4.9,5.93,0,4.15-2.62,6.22-5.21,6.22A4.14,4.14,0,0,1,906,110.6h-.07l-.1,1.92Zm2.18-4.66a3.93,3.93,0,0,0,.1.77,3.26,3.26,0,0,0,3.17,2.47c2.21,0,3.53-1.8,3.53-4.46,0-2.33-1.2-4.32-3.46-4.32a3.37,3.37,0,0,0-3.22,2.59,4.14,4.14,0,0,0-.12.86Z" style="fill:#888"/><path d="M918.34,100.9l2.54,6.86c.26.77.55,1.68.74,2.38h0c.22-.7.46-1.58.74-2.42l2.3-6.82H927l-3.17,8.28c-1.51,4-2.54,6-4,7.27a5.73,5.73,0,0,1-2.59,1.37l-.53-1.78a5.58,5.58,0,0,0,1.85-1,6.41,6.41,0,0,0,1.78-2.35,1.51,1.51,0,0,0,.17-.5,1.84,1.84,0,0,0-.14-.55L916,100.9Z" style="fill:#888"/><path d="M933.66,109.33a7.13,7.13,0,0,0,3.14.89c1.1,0,1.56-.38,1.56-1s-.36-.89-1.73-1.34c-2.42-.82-3.36-2.14-3.34-3.53,0-2.18,1.87-3.84,4.78-3.84a7.88,7.88,0,0,1,3.31.67l-.65,2.52a5.76,5.76,0,0,0-2.54-.67c-.89,0-1.39.36-1.39,1s.46.84,1.9,1.34c2.23.77,3.17,1.9,3.19,3.62,0,2.18-1.73,3.79-5.09,3.79a8.31,8.31,0,0,1-3.79-.82Z" style="fill:#888"/><path d="M948.18,97.42v3.36h2.62v2.69h-2.62v4.25c0,1.42.34,2.06,1.44,2.06a6,6,0,0,0,1.08-.1l0,2.76a7.16,7.16,0,0,1-2.38.31,3.8,3.8,0,0,1-2.74-1,4.86,4.86,0,0,1-1-3.48v-4.8H943v-2.69h1.56V98.24Z" style="fill:#888"/><path d="M952.9,104.65c0-1.73,0-2.86-.1-3.86H956l.12,2.16h.1a3.45,3.45,0,0,1,3.17-2.42,3.77,3.77,0,0,1,.77,0V104a5.19,5.19,0,0,0-1-.1,2.35,2.35,0,0,0-2.5,1.85,4.27,4.27,0,0,0-.07.82v6H952.9Z" style="fill:#888"/><path d="M965.79,97.52a1.83,1.83,0,0,1-2,1.82,1.84,1.84,0,1,1,0-3.67A1.83,1.83,0,0,1,965.79,97.52Zm-3.77,15V100.78h3.65v11.74Z" style="fill:#888"/><path d="M968.6,104.72c0-1.54,0-2.86-.1-3.94h3.17l.17,1.63h0a4.5,4.5,0,0,1,3.91-1.9c2.57,0,4.87,2.23,4.87,6,0,4.27-2.71,6.29-5.33,6.29a3.64,3.64,0,0,1-3-1.34h0v5.83H968.6Zm3.65,2.76a3.61,3.61,0,0,0,.07.77,2.21,2.21,0,0,0,2.14,1.73c1.58,0,2.52-1.32,2.52-3.31s-.84-3.29-2.47-3.29a2.29,2.29,0,0,0-2.18,1.85,2.81,2.81,0,0,0-.07.65Z" style="fill:#888"/><path d="M985.83,107.82c.12,1.51,1.61,2.23,3.31,2.23a10.33,10.33,0,0,0,3.24-.48l.48,2.47a11.59,11.59,0,0,1-4.25.72c-4,0-6.26-2.3-6.26-6,0-3,1.85-6.26,5.93-6.26,3.79,0,5.23,3,5.23,5.86a8.67,8.67,0,0,1-.12,1.44Zm4.3-2.5a2.12,2.12,0,0,0-2.06-2.38,2.39,2.39,0,0,0-2.26,2.38Z" style="fill:#888"/></svg>